<?xml version="1.0" encoding="UTF-8"?>
<svg id="Layer_2" data-name="Layer 2" xmlns="http://www.w3.org/2000/svg" viewBox="0 0 437 388">
  <defs>
    <style>
      .cls-1, .cls-2, .cls-3 {
        fill: none;
      }

      .cls-2, .cls-3 {
        stroke: #26221d;
        stroke-miterlimit: 10;
        stroke-width: 5px;
      }

      .cls-3 {
        stroke-linecap: round;
      }
    </style>
  </defs>
  <g id="Layer_2-2" data-name="Layer 2">
    <g>
      <rect class="cls-2" x="88.02664092" y="95.31214146" width="29" height="42" rx="1.61075618" ry="1.61075618" transform="translate(-51.37508224 97.48434401) rotate(-41.62981208)"/>
      <rect class="cls-2" x="78.75091812" y="94.49955433" width="15" height="7" rx="2.23163076" ry="2.23163076" transform="translate(-43.32014448 82.04733626) rotate(-41.62981208)"/>
      <rect class="cls-2" x="103.95455341" y="70.92657883" width="64" height="26" rx="2.97271778" ry="2.97271778" transform="translate(-21.41872567 111.51212321) rotate(-41.62981208)"/>
      <rect class="cls-2" x="34.44146757" y="132.70789394" width="64" height="26" rx="3.72674636" ry="3.72674636" transform="translate(-80.01634693 80.93623702) rotate(-41.62981208)"/>
      <path class="cls-2" d="m148.63340805,132.86245392c1.35700636-1.20606985,1.14080527-3.40833155-.44300772-4.2958039-9.93876096-5.56907642-22.71845216-4.55223588-31.71313987,3.44199469s-11.50445989,20.56624375-7.14039409,31.08995561c.69544525,1.67702911,2.85710967,2.15021661,4.21411603.94414676l35.08242565-31.18029315Z"/>
      <path class="cls-2" d="m126.42717488,152.59874203l9.32726614,3.42559416c1.27209772.46718824,2.53480882-.71113251,2.15657503-2.01244796l-2.68392654-9.23426783"/>
      <path class="cls-2" d="m128.39219069,164.23106606c.55841861.18541113,7.21658139,2.26911799,12.87218441-2.07529963,4.15475746-3.19150144,6.12287178-8.58806498,5.06667645-13.86826556"/>
      <path class="cls-2" d="m126.3984617,174.03030301c1.1403243.33153381,11.63153654,3.18629643,20.76161303-3.735696,10.34040595-7.83961085,9.12506172-20.78254137,9.05335109-21.4251449"/>
    </g>
    <g>
      <path class="cls-2" d="m242.12471584,248.81292624l17.75056832-26.62585248c.90820723-1.36231085-.06837624-3.18707376-1.70567011-3.18707376h-7.90232094c-1.67443042,0-2.64257407-1.89877516-1.65912687-3.25396844l25.65089342-35.34701038c.84162486-1.15976166,2.58307855-1.12021871,3.37119403.07654923l23.27729952,35.34701038c.89761349,1.36304271-.08001464,3.17741921-1.71206716,3.17741921h-5.57677874c-1.59300792,0-2.57728096,1.73749508-1.75830435,3.10385943l16.05885835,26.79228114c.81897661,1.36636435-.16529642,3.10385943-1.75830435,3.10385943h-6.51424874c-1.60585513,0-2.58816277,1.76269456-1.74337212,3.128381l17.16150007,27.743238c.84479065,1.36568644-.13751699,3.128381-1.74337212,3.128381h-76.56443372c-1.62483574,0-2.60384306-1.80010048-1.72080313-3.16404025l17.91531441-27.67191951c.88303993-1.36393977-.09596739-3.16404025-1.72080313-3.16404025h-7.40035251c-1.63729387,0-2.61387735-1.82476291-1.70567011-3.18707376Z"/>
      <path class="cls-3" d="m268,219l5.76162132,5.32032365c.72036725.66519244,1.83188183.66208977,2.54852427-.00711392l5.68985442-5.31320973"/>
      <path class="cls-3" d="m263,252l10.58802527,10.06573027c.72036725.66519244,1.83188183.66208977,2.54852427-.00711392l10.86345046-10.05861635"/>
      <line class="cls-3" x1="275" y1="286" x2="275" y2="311.12350556"/>
    </g>
    <g>
      <path class="cls-2" d="m156.54558094,254.76538913l13.65135388-20.47703082c.69847106-1.04770659-.05258583-2.45106923-1.31177244-2.45106923h-6.07740427c-1.28774707,0-2.03231317-1.46028291-1.27597762-2.50251563l19.72722322-27.18417454c.64726484-.89193295,1.98655721-.86152183,2.59266981.05887139l17.90177348,27.18417454c.69032378,1.04826945-.06153652,2.44364424-1.31669219,2.44364424h-4.28890945c-1.22512781,0-1.98209848,1.33624793-1.35225163,2.38707194l12.35031771,20.6050254c.62984685,1.05082401-.12712382,2.38707194-1.35225163,2.38707194h-5.0098855c-1.23500816,0-1.9904673,1.35562799-1.34076776,2.40593064l13.19832167,21.33637374c.64969954,1.05030265-.1057596,2.40593064-1.34076776,2.40593064h-58.88308254c-1.2496055,0-2.00252648-1.3843956-1.32341073-2.43335494l13.77805446-21.28152513c.67911575-1.04895934-.07380523-2.43335494-1.32341073-2.43335494h-5.69135755c-1.25918662,0-2.0102435-1.40336263-1.31177244-2.45106923Z"/>
      <path class="cls-3" d="m176.44537539,231.83728908l4.43106554,4.09167862c.55400977.51157671,1.40883755.50919056,1.95998269-.00547107l4.37587207-4.08620755"/>
      <path class="cls-3" d="m172.60004671,257.21645836l8.14288745,7.74120825c.55400977.51157671,1.40883755.50919056,1.95998269-.00547107l8.35470752-7.73573718"/>
      <line class="cls-3" x1="181.82883554" y1="283.36469337" x2="181.82883554" y2="302.68632066"/>
    </g>
    <g>
      <path class="cls-2" d="m338.03795056,254.0277082l12.43713654-18.65570481c.63634567-.95451851-.04790859-2.23305929-1.19509707-2.23305929h-5.53685058c-1.17320862,0-1.85154942-1.3303983-1.16248601-2.27992981l17.97258872-24.76628278c.58969398-.81260013,1.80986322-.78489392,2.36206524.05363508l16.3095033,24.76628278c.62892305.9550313-.05606316,2.22629472-1.19957923,2.22629472h-3.90743313c-1.11615903,0-1.80580107,1.21739559-1.23197584,2.17475423l11.25182081,18.77231494c.57382523.95735865-.11581681,2.17475423-1.23197584,2.17475423h-4.56428209c-1.12516057,0-1.81342553,1.23505189-1.2215134,2.19193555l12.02439921,19.43861362c.59191213.95688366-.09635283,2.19193555-1.2215134,2.19193555h-53.64573683c-1.13845955,0-1.8244121-1.26126077-1.20570019-2.2169206l12.55256776-19.38864351c.61871192-.95565983-.06724064-2.2169206-1.20570019-2.2169206h-5.18514073c-1.14718848,0-1.83144274-1.27854078-1.19509707-2.23305929Z"/>
      <path class="cls-3" d="m356.16776119,233.13894409l4.03694517,3.72774496c.50473347.46607461,1.28352873.46390069,1.78565236-.00498445l3.98666088-3.72276052"/>
      <path class="cls-3" d="m352.66445461,256.26076749l7.41861971,7.05266781c.50473347.46607461,1.28352873.46390069,1.78565236-.00498445l7.61159949-7.04768336"/>
      <line class="cls-3" x1="361.07239039" y1="280.08325221" x2="361.07239039" y2="297.68632066"/>
    </g>
    <rect class="cls-1" width="437" height="388"/>
  </g>
</svg>