<?xml version="1.0" encoding="UTF-8"?>
<svg id="Layer_2" data-name="Layer 2" xmlns="http://www.w3.org/2000/svg" xmlns:xlink="http://www.w3.org/1999/xlink" viewBox="0 0 128 115">
  <defs>
    <style>
      .cls-1, .cls-2 {
        fill: none;
      }

      .cls-2 {
        stroke: #adbc66;
        stroke-miterlimit: 10;
        stroke-width: 3px;
      }

      .cls-3 {
        clip-path: url(#clippath);
      }
    </style>
    <clipPath id="clippath">
      <rect class="cls-1" width="128" height="115"/>
    </clipPath>
  </defs>
  <g id="Layer_12" data-name="Layer 12">
    <g id="Group_249" data-name="Group 249">
      <line id="Line_134" data-name="Line 134" class="cls-2" x1="19.93300056" y1="92.23699951" x2="97.90699959" y2="92.23699951"/>
      <g id="Group_248" data-name="Group 248">
        <g class="cls-3">
          <g id="Group_247" data-name="Group 247">
            <path id="Path_202" data-name="Path 202" class="cls-2" d="m107.16500854,103.25201416c0,6.08300781-4.19100952,11.01501465-9.36099243,11.01501465s-9.36099243-4.93200684-9.36099243-11.01501465,4.190979-11.01501465,9.36099243-11.01501465"/>
            <path id="Path_203" data-name="Path 203" class="cls-2" d="m125.88700199,12.22499943c0-6.04300022-4.13600159-10.94699955-9.25800323-11.01200008v-.00299931H29.29600239c-5.17000008,0-9.36100006,4.93200016-9.36100006,11.01499939v.12100029h0v79.8900013h-9.46700191c-5.12200069.06900024-9.25800037,4.97399902-9.25800037,11.01499939s4.13599968,10.9469986,9.25800037,11.01200104h87.33300304c5.13500214,0,9.30000305-4.86699677,9.35800171-10.89399719h0V23.24000072h9.46399689c5.12799835-.06800079,9.26399994-4.97200012,9.26399994-11.0150013Z"/>
            <path id="Path_204" data-name="Path 204" class="cls-2" d="m107.16500854,12.22499943c0-6.08299923,4.190979-11.01499939,9.36099243-11.01499939s9.36099243,4.93200016,9.36099243,11.01499939c0,6.08300018-4.1869812,11.0150013-9.36099243,11.0150013"/>
            <line id="Line_135" data-name="Line 135" class="cls-2" x1="107.16500092" y1="11.55000019" x2="107.16500092" y2="28.08199978"/>
            <path id="Path_205" data-name="Path 205" class="cls-2" d="m26.5490036,77.9750061c2.72799683,0,3.90699768-2.34399414,7.19300079-2.34399414s4.42299652,2.34399414,7.11800385,2.34399414"/>
            <path id="Path_206" data-name="Path 206" class="cls-2" d="m40.78499603,77.9750061c2.72799683,0,3.90699768-2.34399414,7.19299316-2.34399414s4.42300415,2.34399414,7.11799622,2.34399414"/>
            <path id="Path_207" data-name="Path 207" class="cls-2" d="m55.02200317,77.9750061c2.72799683,0,3.90699768-2.34399414,7.19299316-2.34399414s4.42300415,2.34399414,7.11799622,2.34399414"/>
            <path id="Path_208" data-name="Path 208" class="cls-2" d="m69.25801086,77.9750061c2.72799683,0,3.90701294-2.34399414,7.19299316-2.34399414s4.42300415,2.34399414,7.11801147,2.34399414"/>
            <path id="Path_209" data-name="Path 209" class="cls-2" d="m83.49499512,77.9750061c2.72799683,0,3.90701294-2.34399414,7.19299316-2.34399414s4.42300415,2.34399414,7.11801147,2.34399414"/>
            <path id="Path_210" data-name="Path 210" class="cls-2" d="m26.59399414,63.1499939c2.72799683,0,3.90699768-2.34399414,7.19300079-2.34399414s4.42299652,2.34399414,7.11800385,2.34399414"/>
            <path id="Path_211" data-name="Path 211" class="cls-2" d="m40.83100128,63.1499939c2.72799683,0,3.90699768-2.34399414,7.19299316-2.34399414s4.42300415,2.34399414,7.11799622,2.34399414"/>
            <path id="Path_212" data-name="Path 212" class="cls-2" d="m55.06700134,63.1499939c2.72799683,0,3.90699768-2.34399414,7.19299316-2.34399414s4.42300415,2.34399414,7.11799622,2.34399414"/>
            <path id="Path_213" data-name="Path 213" class="cls-2" d="m69.30299377,63.1499939c2.72799683,0,3.90701294-2.34399414,7.19299316-2.34399414s4.42300415,2.34399414,7.11801147,2.34399414"/>
            <path id="Path_214" data-name="Path 214" class="cls-2" d="m83.53997803,63.1499939c2.72799683,0,3.90701294-2.34399414,7.19299316-2.34399414s4.42199707,2.34399414,7.11801147,2.34399414"/>
            <path id="Path_215" data-name="Path 215" class="cls-2" d="m26.5490036,48.44000244c2.72799683,0,3.90699768-2.34399414,7.19300079-2.34399414s4.42299652,2.34399414,7.11800385,2.34399414"/>
            <path id="Path_216" data-name="Path 216" class="cls-2" d="m40.78499603,48.44000244c2.72799683,0,3.90699768-2.34399414,7.19299316-2.34399414s4.42300415,2.34399414,7.11799622,2.34399414"/>
            <path id="Path_217" data-name="Path 217" class="cls-2" d="m55.02200317,48.44000244c2.72799683,0,3.90699768-2.34399414,7.19299316-2.34399414s4.42300415,2.34399414,7.11799622,2.34399414"/>
            <path id="Path_218" data-name="Path 218" class="cls-2" d="m69.25801086,48.44000244c2.72799683,0,3.90701294-2.34399414,7.19299316-2.34399414s4.42300415,2.34399414,7.11801147,2.34399414"/>
            <path id="Path_219" data-name="Path 219" class="cls-2" d="m83.49499512,48.44000244c2.72799683,0,3.90701294-2.34399414,7.19299316-2.34399414s4.42300415,2.34399414,7.11801147,2.34399414"/>
            <path id="Path_220" data-name="Path 220" class="cls-2" d="m26.5490036,33.6720047c2.72799683,0,3.90699768-2.34399414,7.19300079-2.34399414s4.42299652,2.34399414,7.11800385,2.34399414"/>
            <path id="Path_221" data-name="Path 221" class="cls-2" d="m40.78499603,33.6720047c2.72799683,0,3.90699768-2.34399414,7.19299316-2.34399414s4.42300415,2.34399414,7.11799622,2.34399414"/>
            <path id="Path_222" data-name="Path 222" class="cls-2" d="m55.02200317,33.6720047c2.72799683,0,3.90699768-2.34399414,7.19299316-2.34399414s4.42300415,2.34399414,7.11799622,2.34399414"/>
            <path id="Path_223" data-name="Path 223" class="cls-2" d="m69.25801086,33.6720047c2.72799683,0,3.90701294-2.34399414,7.19299316-2.34399414s4.42300415,2.34399414,7.11801147,2.34399414"/>
            <path id="Path_224" data-name="Path 224" class="cls-2" d="m83.49499512,33.6720047c2.72799683,0,3.90701294-2.34399414,7.19299316-2.34399414s4.42300415,2.34399414,7.11801147,2.34399414"/>
            <path id="Path_225" data-name="Path 225" class="cls-2" d="m26.5490036,18.90499878c2.72799683,0,3.90699768-2.34400177,7.19300079-2.34400177s4.42299652,2.34400177,7.11800385,2.34400177"/>
            <path id="Path_226" data-name="Path 226" class="cls-2" d="m40.78499603,18.90499878c2.72799683,0,3.90699768-2.34400177,7.19299316-2.34400177s4.42300415,2.34400177,7.11799622,2.34400177"/>
            <path id="Path_227" data-name="Path 227" class="cls-2" d="m55.02200317,18.90499878c2.72799683,0,3.90699768-2.34400177,7.19299316-2.34400177s4.42300415,2.34400177,7.11799622,2.34400177"/>
            <path id="Path_228" data-name="Path 228" class="cls-2" d="m69.25801086,18.90499878c2.72799683,0,3.90701294-2.34400177,7.19299316-2.34400177s4.42300415,2.34400177,7.11801147,2.34400177"/>
            <path id="Path_229" data-name="Path 229" class="cls-2" d="m83.49499512,18.90499878c2.72799683,0,3.90701294-2.34400177,7.19299316-2.34400177s4.42300415,2.34400177,7.11801147,2.34400177"/>
          </g>
        </g>
      </g>
    </g>
  </g>
</svg>