<?xml version="1.0" encoding="UTF-8"?>
<svg id="Layer_2" data-name="Layer 2" xmlns="http://www.w3.org/2000/svg" xmlns:xlink="http://www.w3.org/1999/xlink" viewBox="0 0 128 92.94799805">
  <defs>
    <style>
      .cls-1, .cls-2, .cls-3 {
        fill: none;
      }

      .cls-2 {
        stroke-miterlimit: 10;
      }

      .cls-2, .cls-3 {
        stroke: #adbc66;
        stroke-width: 3px;
      }

      .cls-4 {
        clip-path: url(#clippath);
      }

      .cls-3 {
        stroke-linejoin: bevel;
      }
    </style>
    <clipPath id="clippath">
      <rect class="cls-1" width="128" height="92.94799805"/>
    </clipPath>
  </defs>
  <g id="Layer_12" data-name="Layer 12">
    <g id="Group_251" data-name="Group 251">
      <g class="cls-4">
        <g id="Group_250" data-name="Group 250">
          <path id="Path_230" data-name="Path 230" class="cls-3" d="m126.71600342,83.11299133l-11.25601196-18.19999695c-.39047241-.63191986-.19473267-1.46072388.43719482-1.85119629.21240234-.13124084.45715332-.20077515.70681763-.20080566h4.27301025c.74282837-.00050354,1.34460449-.60308838,1.34408569-1.34590912-.00015259-.24307251-.06619263-.48155212-.19107056-.69009399l-10.5340271-17.57099152c-.38162231-.63729095-.17437744-1.46329498.46292114-1.84492493.20852661-.12487793.44702148-.19091034.69009399-.19107819h3.6579895c.74282837-.00154114,1.34375-.60496521,1.34222412-1.34778595-.00054932-.26169586-.0774231-.51755524-.22122192-.73621368l-15.26599121-23.18499756c-.40896606-.62010956-1.24319458-.79128265-1.86331177-.38232422-.13491821.08898163-.25268555.20155334-.34768677.33232117l-16.82299805,23.18500519c-.4357605.60158539-.30133057,1.44251251.30026245,1.87826538.22915649.16598511.50479126.25547028.78775024.2557373h5.18301392c.74227905-.0005722,1.3444519.60070038,1.34503174,1.34296417.00021362.26589203-.07846069.52586365-.2260437.74703217l-4.29400635,6.44000244,6.27798462,10.47299957c.496521.82792664.22784424,1.90159607-.60009766,2.39810181-.27185059.1630249-.58291626.24906158-.89990234.24890137h-5.55599976c-.10064697.00121307-.20098877.01091003-.29998779.02899933.72421265.16272736,1.17938232.88173676,1.0166626,1.6059494-.03475952.15465546-.09658813.30194092-.18264771.43505096l-1.2210083,1.88600159,11.33898926,18.33999634h29.47399902c.74282837-.00045776,1.34463501-.60299683,1.34417725-1.3458252-.00015259-.24905396-.06945801-.49319458-.20019531-.70518494Z"/>
          <path id="Path_231" data-name="Path 231" class="cls-2" d="m57.3999939,39.86000061l7.05700684,6.61399841,6.82800293-6.61399841"/>
          <path id="Path_232" data-name="Path 232" class="cls-2" d="m52.95800781,64.71299744l11.55499268,8.84100342,11.18099976-8.84100342"/>
          <path id="Path_233" data-name="Path 233" class="cls-3" d="m43.62100101,68.65400314l-1.0870018-1.75700378c-.39046478-.63191223-.19472885-1.46072388.43719101-1.85119629.21239853-.13124084.45713425-.20076752.70681-.20080566h2.20299911c.12481689-.95840454-.55094147-1.83652496-1.50934601-1.96134186-.07449341-.00970459-.14953232-.01459503-.22465515-.01465607h-6.30699921c-.96539307.00045776-1.74837494-.7817688-1.74883652-1.74716187-.00016403-.34554291.10208511-.68338013.29383469-.97084045l5.85799789-8.78800201-3.67300034-6.12799835c-.38162994-.63729095-.17437363-1.46329498.46292114-1.84492493.20853424-.12487793.44701385-.19091034.69007874-.19107819h3.65800476c.74282455-.00043488,1.34464645-.60296631,1.34421158-1.34578705-.0001564-.26238251-.07704926-.51898956-.22121048-.73821259l-15.26700211-23.18399811c-.40895844-.62010956-1.24318504-.79128265-1.86329651-.38232422-.13492775.08898163-.25271225.20155334-.34770393.33232117l-16.8249979,23.18500519c-.43575478.60158539-.30132294,1.44251251.30026245,1.87826538.2291441.16598511.50479603.25547028.78773785.2557373h5.18300056c.74282265.00008392,1.34493065.60233307,1.34484673,1.34515381-.00003052.26545715-.07861137.52497101-.22584724.74584961l-11.6430006,17.46399689c-.41200638.61808777-.24494171,1.45314789.37314987,1.86515808.22088242.14723206.48039436.22581482.74585056.22584534h4.85400009c.74226952-.0006485,1.3445282.60055542,1.3451786,1.34281921.00022888.25982666-.07486153.5141449-.21617889.73217773L1.29900002,85.07099533c-.40371895.62287903-.22605515,1.45509338.39682293,1.85881042.21803236.1413269.47235298.21641541.73217726.21618652h29.22100067l11.97200012-18.49198914Z"/>
          <path id="Path_234" data-name="Path 234" class="cls-2" d="m36.38500214,60.15099978l15.13900757-22.70899963c.53572083-.80311584.31893921-1.88845062-.48417664-2.42416763-.28744507-.19174576-.62528992-.2939949-.9708252-.29383087h-6.74000549c-.96539307.00027847-1.74822998-.78210068-1.74850464-1.74749374-.00010681-.36912537.11663818-.72880936.33351135-1.02750778L63.79199982,1.80300021c.56678772-.78150082,1.65977478-.95556545,2.44128418-.38878393.17076111.12385082.31770325.27759075.43371582.45378399l19.85099792,30.14699793c.53129578.80604553.30856323,1.89017487-.49746704,2.42147064-.28569031.18831253-.62037659.28863144-.96253967.28852844h-4.7559967c-.96539307-.00049591-1.74839783.78170776-1.74890137,1.74710083-.00016785.31698608.08587646.62804794.24890137.89989853l13.69999695,22.85000229c.49650574.82792664.22782898,1.90159607-.60009766,2.39810181-.27185059.1630249-.58291626.24906158-.89990234.24890137h-5.55599976c-.96539307-.00038147-1.74830627.78191376-1.74868774,1.74730682-.00013733.32526398.09049988.64411926.26168823.92069244l14.63699341,23.66100311c.50810242.82086182.25456238,1.89820099-.56629944,2.40630341-.27658081.17119598-.59542847.26182556-.92070007.26169586H31.80898285c-.96539307.00109863-1.74888611-.78061676-1.74998474-1.74600983-.00038147-.33860016.09757996-.67001343.28198242-.95398712l15.27999878-23.59999847c.52577209-.80966187.29563904-1.89224243-.51402283-2.41801453-.28396606-.18440247-.61538696-.28236389-.95397949-.28198242h-6.31199646c-.96539307-.00009918-1.7479248-.78278351-1.74781799-1.74817657.00003052-.34397125.10154724-.68029022.2918396-.96683502Z"/>
        </g>
      </g>
    </g>
  </g>
</svg>