<?xml version="1.0" encoding="UTF-8"?>
<svg xmlns="http://www.w3.org/2000/svg" viewBox="0 0 4685 1710">
  <defs>
    <style>
      .cls-1 {
        fill: none;
      }

      .cls-2 {
        fill: #f4774a;
      }

      .cls-3 {
        fill: #f89a4a;
      }

      .cls-4 {
        fill: #69ac6f;
      }

      .cls-5 {
        fill: #676767;
      }

      .cls-6 {
        fill: #f05653;
      }

      .cls-7 {
        fill: #7c7f7e;
      }

      .cls-8 {
        fill: #9ed7c8;
      }

      .cls-9 {
        fill: #9fd6e6;
      }

      .cls-10 {
        fill: #b7e3ee;
      }

      .cls-11 {
        fill: #8cbb94;
      }

      .cls-12 {
        fill: #8bba91;
      }

      .cls-13 {
        fill: #8dd2cd;
      }

      .cls-14 {
        fill: #84cbda;
      }

      .cls-15 {
        fill: #afd7a0;
      }

      .cls-16 {
        fill: #cfecf2;
      }

      .cls-17 {
        fill: #6f6e6f;
      }

      .cls-18 {
        fill: #47a898;
      }

      .cls-19 {
        fill: #59b39c;
      }

      .cls-20 {
        fill: #81bf87;
      }

      .cls-21 {
        fill: #6fbec1;
      }

      .cls-22 {
        fill: #767474;
      }

      .cls-23 {
        fill: #75cabb;
      }

      .cls-24 {
        fill: #78ad7d;
      }

      .cls-25 {
        fill: #51b298;
      }

      .cls-26 {
        fill: #518e58;
      }

      .cls-27 {
        fill: #838685;
      }

      .cls-28 {
        fill: #7abbd7;
      }
    </style>
  </defs>
  <g id="Layer_2" data-name="Layer 2">
    <rect class="cls-16" width="4685" height="1710"/>
    <path class="cls-10" d="m4685,291.72c-31.69,37.79-71.27,66.45-116.26,47.62s-61.18-40.84-167.34-20.84-102.57,72.19-190.74,39.8-17.99-66.58-17.99-66.58c0,0-118.76,7.2-39.59-214.13,0,0-86.37,25.19-86.37-34.19s-131.36,84.57-228.52,73.78c-97.17-10.8-100.77-64.78-100.77-64.78,0,0-77.37-9-133.16,50.38-55.78,59.38-133.16,100.77-179.94,55.78-46.78-44.98-44.98-107.96-44.98-107.96,0,0-246.52,104.37-300.5,192.54-53.98,88.17-77.37,5.4-77.37,5.4,0,0-30.59,18.06-61.18,20.73s-43.19-15.33-77.37,8.06-141.36,12.6-212.83-95.37-726.45,104.37-726.45,104.37c0,0-465.75-5.23-154.16,102.28s1126.22,184.4,1193.92,160.38,164.88-141.95,227.12-183.44c62.24-41.49,46.95,3.28,58.96,15.29,12.01,12.01,24.02,0,34.94,2.18,10.92,2.18,3.28,21.84,17.47,15.29,14.19-6.55,131.03-109.39,175.8-107.1s-10.92,73.26,15.29,66.7c26.21-6.55,52.41-18.56,74.25-10.92,21.84,7.64,15.29,32.76,60.05,2.18,44.77-30.57,75.34-40.4,98.27,7.64s959.47,206.47,959.47,206.47v-271.55Z"/>
    <path class="cls-28" d="m2470.42,447.32l316.56-133.1,73.74,22.79s-3.6,18.58,93.53,95.92l57.56,80.94h307.57l28.78,25.18,55.76,77.84,282.38-119.21-8.99-86.33,89.93-122.31,43.17-19.78,89.93,14.39s115.11,48.56,131.3,80.94l196.05,68.35,93.53-68.35s84.54-17.99,98.92-37.77l16.4-3.19,151.35,77.44,97.12,16.79v127.62l-1809.08,402.57-225.84-247.28-197.61-54.35-52.21-29.51,70.16-169.57Z"/>
    <path class="cls-14" d="m2535.08,466.8h25.49l269.55-79.99h10.86s85.27,126.58,111.64,139.77l203.94,36.7,25.49,14.9,68.56,63.56,223.89,116.48,589.75-232.68,317.56-43.9,84.88-39.51,92.19,26.34,125.64,9.67.34,76.07-620.21,9.07-597.4,257.04-563.73-81.46-495.3-28.24-65.72-91.4-150.43-82.39,53.22-52.14,289.78-17.88Z"/>
    <polygon class="cls-9" points="2221.46 500.77 2507.66 588.45 2627.58 536.04 2818.04 500.77 2938.97 596.51 3109.01 650.92 3240.28 640.85 2979.28 795.03 2248.67 720.46 2165.03 563.27 2221.46 500.77"/>
    <path class="cls-21" d="m3109.01,714.05s-217.14-127.96-347.04-120.2c-129.9,7.75-253.98,20.65-333.46-.34s-356.73-44.88-480.81,109.56l736.72,403.29,424.59-392.31Z"/>
    <path class="cls-18" d="m2830.12,863.5s-201.18-48.76-243.17-94.24-407.61-192.43-502.08-138.2-632.5,110.3-632.5,110.3l-787.31,122.15,1604.23,465.95,560.82-465.95Z"/>
    <path class="cls-25" d="m2636.09,942.25s-292.56-155.5-487.02-184.97-506.76,64.82-553.9,172.85,163.03,390.81,163.03,390.81l610.86,49.17,267.03-427.85Z"/>
    <path class="cls-13" d="m4685,506s-65.14,8.04-110.72,0-442.37-160.86-528.16-166.22c-85.79-5.36-155.5,40.22-270.78,21.45-115.28-18.77-356.58,203.76-426.28,214.48-69.71,10.72-481.24,227.89-1050.96,522.8C1728.37,1393.42,0,373.47,0,373.47v559.33s2792.19,895.49,4080.84,173.57l604.16-316.14v-284.22Z"/>
    <path class="cls-23" d="m4574.28,506c-45.58-8.04-442.37-160.86-528.16-166.22-65.35-4.08-121.37,21.38-195.31,25.46l-73.92,32.69s-59.04,53.09-113.19,73.2c-54.15,20.11-90.81,40.1-92.48,44.27-1.67,4.17,28.33,34.16,84.98,6.66,56.65-27.49,59.99-18.33,56.65-13.33s-191.62,93.31-234.94,137.47c-43.32,44.16-43.32,66.65-18.33,71.65,24.99,5,44.16,13.33,34.16,18.33-10,5-56.65,37.49-99.98,42.49-43.32,5-225.78,103.31-234.94,98.31-9.16-5,184.12-115.8,188.29-122.47,4.17-6.67-183.29,76.65-257.44,146.63-74.15,69.98-47.49,51.65,28.33,11.66,75.81-39.99,298.84-130.83,299.71-129.08.87,1.75-9.95,12.88-6.39,13.1,3.56.22,239.74-92.96,284.24-105.7,44.5-12.74,79.23-12.39,78.88-10.47-.35,1.92-100.52,33.68-106.28,43.1-5.76,9.42,59.62,21.95,186.43-22.3,126.81-44.25,215.33-48.08,198.78-26.12-16.55,21.95-42.75,37.76-39.87,41.35,2.87,3.59,53.41,3.83,53.41,3.83,0,0-32.09,15.33-32.81,27.3-.72,11.97,16.53,10.78,14.13,17-2.4,6.23-33.53,13.41-34.49,19.16-.96,5.75,24.67-3.11,33.05-.72,8.38,2.39,88.38-8.86,88.38-8.86l-29.93,38.49-105.01,23.95s-26.41-19.04-72.46-21.49c-46.06-2.46-39.3-1.23-50.97-5.53-11.67-4.3-64.48-10.44-134.49-5.53-70.01,4.91-216.17,35-238.89,36.23-22.72,1.23-24.56,8.6-22.11,11.67,2.46,3.07,19.65,9.72,14.74,11.31-4.91,1.59-92.12,15.71-124.05,31.68-31.93,15.97-43.6,23.34-29.48,29.48,14.12,6.14,23.34,5.53,19.65,8.6-3.68,3.07-54.04,17.81-71.24,24.56-17.19,6.76-435.38,173.17-483.85,193.7-48.46,20.53-149.13,75.57-180.53,84.6-31.39,9.04-234.28,73.1-234.28,73.1l-86.16-94.3,36.39-51.63s582.4-309.57,724.85-361.37c142.45-51.8,187.06-120.74,81.76-98.73-50.82,10.62-88,13.99-112.87,14.63-185.18,93.3-440,226.34-738.15,380.67-86.45,44.75-199.58,59.22-329.29,51.58l-157.6,60.99,19.96,117.8c794.25,99.71,1672.68,100.73,2249.67-222.52l521.91-273.1,32.89-200.09-7.91-123.62c-17.69.17-36.86-.62-53.45-3.55Z"/>
    <path class="cls-19" d="m4574.28,506c-45.58-8.04-442.37-160.86-528.16-166.22-85.79-5.36-155.5,40.22-270.78,21.45-115.28-18.77-356.58,203.76-426.28,214.48-34.88,5.37-155.32,62.41-338.32,155.01-.16.08-45.55,24.05-55.74,46.28-10.21,22.27,129.93-49.19,193.04-65.9,63.11-16.71,172.63-72.39,202.33-88.17s61.25-22.27,114.16-51.05c52.9-28.77,75.18-53.83,48.26-79.82,0,0,77.96-72.39,221.82-71.46,143.86.93,232.21,1.06,232.89,6.29.68,5.23-7.73,2.5-7.5,7.05.23,4.55,26.69,13.33,31.46,18.84,4.77,5.51,168.9,69.03,175.88,62.42,6.98-6.61-5.14-9.18-1.47-12.48,3.67-3.3,19.83,6.98,48.47,16.16,28.64,9.18,252.62,68.3,282,75.27,29.37,6.98,100.61,16.16,100.61,19.46s-124.11,48.47-164.86,53.98c-40.76,5.51-367.18,115.66-368.28,122.27-1.1,6.61,27.54,8.81,23.13,15.05-4.41,6.24-157.15,45.9-164.86,44.43-7.71-1.47-90.69-.29-94.37.04s-179.55,48.06-179.55,48.06l239.77-31.21,20.56,12.85s-405.86,75.92-548.94,124.36c-143.07,48.44-753.1,326.7-994.18,292.9l43.13-30.16s201.23-13.14,263.75-54.12c0,0-59.37,9.46-81.44,14.71-22.07,5.25-145.54,35.73-214.89,23.64l-39.93,55.17,73.65,74.77c405.85,19.82,809.72,1.56,1163.54-82.89l168.98-134.18,254.42-123.4,426.12-112.42,226.28-118.4,35.91-78.04v-225.03c-3.25.39-66.19,7.82-110.58-.02Zm-617.01-106.93c-41.19,1.23-62.1,3.69-63.33-2.46-1.23-6.15,67.63-20.29,110.67-18.44,79.91,3.42,314.79,84.85,311.1,92.22s-137.72-43.04-174-48.57c-36.27-5.53-143.25-23.98-184.45-22.75Zm541.04,164.2c-11.07-6.72-124.81-22.18-134.03-24.64-9.22-2.46-65.79-31.97-102.06-37.5-36.27-5.53-226.26-69.48-225.03-73.78,0,0,113.13,6.15,144.48,17.83s113.74,29.51,211.5,61.48c97.76,31.97,116.2,63.33,105.13,56.61Z"/>
    <path class="cls-11" d="m4685,703.07s-1122.61,351.24-1435.68,526.87C2936.26,1405.56,1126.83,1297.09,0,820.26v889.74h4685v-1006.93Z"/>
    <path class="cls-24" d="m2342.5,1465.85s512.41-41.45,646.9-70.85c134.49-29.4,283.87-55.62,290.14-46.22,6.27,9.41-32.92,21.95-30.57,29.79s232.82-25.08,234.39-14.89c1.57,10.19-73.69,212.44-311.99,253.99-238.31,41.55-940.69,10.97-1022.21-8.62-81.53-19.6,480.06-40.76,479.9-50.95s-399.16,11.76-426.6,0c-27.44-11.76-163.84-92.24-163.84-92.24l291.61-27.7,12.27,27.7Z"/>
    <path class="cls-15" d="m2298.4,1297l-10.2,25.4,100.3,16.4s108.6,14.1,140.8,13.1-186.8,9.1-186.8,9.1l23.9,34s492.8-11.9,692-80.3c199.1-68.4,185.1-58.3,185.1-58.3,0,0-74.6,51.9-100.3,59.9l8.6,17.1,14.1-1.8s64.9-25.1,91.2-27.6c0,0,143.6-53.8,256.4-121.5,112.8-67.7,691.4-265.1,691.4-265.1,0,0-523.3,215.4-615.8,306.8,0,0,9.3,4.1,15,4.1,0,0-50,26.3-59.9,36.3,0,0,3.4,8.4,101.5,2.3,0,0-40.4,14.5-37.8,16.8,2.6,2.3,84.9-11.6,137.1-30.9,52.1-19.3,178.6-49.8,240.1-68.5s379.1-174.7,552-185.7c114.8-7.3,142.4-5.7,148-3.8v-291.6l-.6.1c-89.2,28-1130,356.9-1429.6,525-125.5,70.2-491,94.9-956.5,68.7Z"/>
    <path class="cls-8" d="m3225.34,725.34c-15.93-7.81-137.95,60.11-141.26,57.71-3.31-2.4,1.4-10.1-5.46-8.15-6.86,1.96-128.3,42.11-162.58,56.81-34.28,14.69-168.46,91.08-178.25,82.27-9.79-8.81.98-24.48-4.9-19.59-5.88,4.9-47.99,40.16-56.81,39.18-8.81-.98-.98-7.84-8.81-9.79-7.84-1.96-26.44,50.93-40.72,57.78-14.28,6.86-3.35,8.81-19.02,16.32-15.67,7.51-12.73,1.31-20.57,0s-39.18,47.34-48.97,45.24,10.77-24.35-3.92-22.71-23.51,39.5-63.66,50.27c-40.16,10.77-63.66,25.46-86.19,59.98,0,0,28.55,45.49,36.34,40.1,7.79-5.39,23.98-47.05,30.27-48.25s14.39,8.99,31.47,3.6c17.08-5.39,56.34-56.04,62.04-56.04s13.19,18.28,26.37,18.28,53.65-63.24,62.94-63.54,11.09,22.78,18.28,25.77c7.19,3,13.19-11.99,18.88-14.98,5.69-3,11.39,4.8,16.78-2.4,5.39-7.19,6.29-3.3,20.98-5.09,14.69-1.8,43.16-33.87,52.45-35.96s12.89,3.6,26.97-3.6c14.09-7.19,128.57-65.04,147.15-77.02,18.58-11.99,143.78-76.34,144.57-73.97.79,2.37-26.34,28.71-44.25,42.4-17.91,13.7-130.28,104.47-128.61,104.68s5.44-3.56,7.32-2.72-5.23,7.38,2.94,2.65c8.17-4.73,147.95-113.98,168-136.77s47.63-59.63,47.63-59.63c6.01-7.51,108.5-55,92.57-62.82Zm-441.82,239.53c70.13-55.93,265-137.61,265-137.61-55.04,47.05-265,137.61-265,137.61Z"/>
    <path class="cls-20" d="m4685,1710l.5-510.34c-327.8,111.9-892.16,165.06-1054.16,255.96-802.31,315.54-1936.94,151.84-3063.74-324.96v579.34h4117.4Z"/>
    <path class="cls-24" d="m4685.11,1185.26l.52-171.7c-29.99-11.89-477.35,131.17-477.35,131.17,0,0-523.3,141.92-615.8,202.14,0,0,9.3,2.7,15,2.7,0,0-50,17.33-59.9,23.92,0,0,3.4,5.53,101.5,1.52,0,0-40.4,9.55-37.8,11.07,2.6,1.52,84.9-7.64,137.1-20.36,52.1-12.72,178.6-32.81,240.1-45.13s379.1-115.1,552-122.35c114.8-4.81,138.92-4.22,144.52-2.97l.1-10Z"/>
  </g>
  <g id="Layer_3" data-name="Layer 3">
    <path class="cls-12" d="m4566.14,1168.83l-56.17-138.2c-.29-.71.24-1.5,1.01-1.5h22.17c.79,0,1.32-.82.99-1.54l-46.12-99.24c-.33-.72.19-1.54.99-1.54h22.44c.79,0,1.31-.81.99-1.53l-54.39-123.13c-.38-.86-1.61-.86-1.99,0l-54.4,123.13c-.32.72.21,1.53.99,1.53h22.44c.79,0,1.32.82.99,1.54l-46.12,99.24c-.33.72.19,1.54.99,1.54h22.17c.77,0,1.3.78,1.01,1.5l-56.17,138.2c-.29.71.24,1.5,1.01,1.5,0,0-1.09,17.56,108.09,17.56s108.09-17.56,108.09-17.56c.77,0,1.3-.78,1.01-1.5Z"/>
    <path class="cls-20" d="m4513.08,1498.1l-97.05-238.76c-.5-1.23.41-2.58,1.74-2.58h38.29c1.37,0,2.28-1.42,1.7-2.67l-79.67-171.44c-.58-1.24.33-2.67,1.7-2.67h38.77c1.36,0,2.27-1.4,1.72-2.64l-93.97-212.71c-.66-1.49-2.78-1.49-3.43,0l-93.97,212.71c-.55,1.24.36,2.64,1.72,2.64h38.77c1.37,0,2.28,1.42,1.7,2.67l-79.67,171.44c-.58,1.24.33,2.67,1.7,2.67h38.29c1.33,0,2.24,1.35,1.74,2.58l-97.05,238.76c-.5,1.23.41,2.58,1.74,2.58h373.48c1.33,0,2.24-1.35,1.74-2.58Z"/>
    <path class="cls-20" d="m3885.98,1569.13l-56.17-138.2c-.29-.71.24-1.5,1.01-1.5h22.17c.79,0,1.32-.82.99-1.54l-46.12-99.24c-.33-.72.19-1.54.99-1.54h22.44c.79,0,1.31-.81.99-1.53l-54.39-123.13c-.38-.86-1.61-.86-1.99,0l-54.4,123.13c-.32.72.21,1.53.99,1.53h22.44c.79,0,1.32.82.99,1.54l-46.12,99.24c-.33.72.19,1.54.99,1.54h22.17c.77,0,1.3.78,1.01,1.5l-56.17,138.2c-.29.71.24,1.5,1.01,1.5,0,0-1.09,17.56,108.09,17.56s108.09-17.56,108.09-17.56c.77,0,1.3-.78,1.01-1.5Z"/>
    <path class="cls-20" d="m3502.11,1639.98l-56.17-138.2c-.29-.71.24-1.5,1.01-1.5h22.17c.79,0,1.32-.82.99-1.54l-46.12-99.24c-.33-.72.19-1.54.99-1.54h22.44c.79,0,1.31-.81.99-1.53l-54.39-123.13c-.38-.86-1.61-.86-1.99,0l-54.4,123.13c-.32.72.21,1.53.99,1.53h22.44c.79,0,1.32.82.99,1.54l-46.12,99.24c-.33.72.19,1.54.99,1.54h22.17c.77,0,1.3.78,1.01,1.5l-56.17,138.2c-.29.71.24,1.5,1.01,1.5,0,0-1.09,17.56,108.09,17.56s108.09-17.56,108.09-17.56c.77,0,1.3-.78,1.01-1.5Z"/>
    <path class="cls-20" d="m3239.25,1668.41l-56.17-138.2c-.29-.71.24-1.5,1.01-1.5h22.17c.79,0,1.32-.82.99-1.54l-46.12-99.24c-.33-.72.19-1.54.99-1.54h22.44c.79,0,1.31-.81.99-1.53l-54.39-123.13c-.38-.86-1.61-.86-1.99,0l-54.4,123.13c-.32.72.21,1.53.99,1.53h22.44c.79,0,1.32.82.99,1.54l-46.12,99.24c-.33.72.19,1.54.99,1.54h22.17c.77,0,1.3.78,1.01,1.5l-56.17,138.2c-.29.71.24,1.5,1.01,1.5,0,0-1.09,17.56,108.09,17.56s108.09-17.56,108.09-17.56c.77,0,1.3-.78,1.01-1.5Z"/>
    <path class="cls-12" d="m3497,1270.81l-19.27-47.41c-.1-.25.08-.51.35-.51h7.6c.27,0,.45-.28.34-.53l-15.82-34.04c-.11-.25.07-.53.34-.53h7.7c.27,0,.45-.28.34-.52l-18.66-42.24c-.13-.3-.55-.3-.68,0l-18.66,42.24c-.11.25.07.52.34.52h7.7c.27,0,.45.28.34.53l-15.82,34.04c-.11.25.07.53.34.53h7.6c.26,0,.44.27.35.51l-19.27,47.41c-.1.25.08.51.35.51,0,0-.37,6.03,37.08,6.03s37.08-6.03,37.08-6.03c.26,0,.44-.27.35-.51Z"/>
    <path class="cls-12" d="m3572,1202.27l-12.57-30.93c-.07-.16.05-.33.23-.33h4.96c.18,0,.3-.18.22-.35l-10.32-22.21c-.07-.16.04-.35.22-.35h5.02c.18,0,.29-.18.22-.34l-12.17-27.55c-.09-.19-.36-.19-.44,0l-12.17,27.55c-.07.16.05.34.22.34h5.02c.18,0,.3.18.22.35l-10.32,22.21c-.07.16.04.35.22.35h4.96c.17,0,.29.17.23.33l-12.57,30.93c-.06.16.05.33.23.33,0,0-.24,3.93,24.19,3.93s24.19-3.93,24.19-3.93c.17,0,.29-.17.23-.33Z"/>
    <path class="cls-12" d="m3715.45,1288.74l-12.57-30.93c-.07-.16.05-.33.23-.33h4.96c.18,0,.3-.18.22-.35l-10.32-22.21c-.07-.16.04-.35.22-.35h5.02c.18,0,.29-.18.22-.34l-12.17-27.55c-.09-.19-.36-.19-.44,0l-12.17,27.55c-.07.16.05.34.22.34h5.02c.18,0,.3.18.22.35l-10.32,22.21c-.07.16.04.35.22.35h4.96c.17,0,.29.17.23.33l-12.57,30.93c-.06.16.05.33.23.33,0,0-.24,3.93,24.19,3.93s24.19-3.93,24.19-3.93c.17,0,.29-.17.23-.33Z"/>
    <path class="cls-12" d="m3880.76,1227.09l-13.65-33.57c-.07-.17.06-.36.24-.36h5.38c.19,0,.32-.2.24-.38l-11.2-24.11c-.08-.17.05-.38.24-.38h5.45c.19,0,.32-.2.24-.37l-13.21-29.91c-.09-.21-.39-.21-.48,0l-13.21,29.91c-.08.17.05.37.24.37h5.45c.19,0,.32.2.24.38l-11.2,24.11c-.08.18.05.38.24.38h5.38c.19,0,.32.19.24.36l-13.65,33.57c-.07.17.06.36.24.36,0,0-.26,4.27,26.26,4.27s26.26-4.27,26.26-4.27c.19,0,.32-.19.24-.36Z"/>
    <path class="cls-19" d="m4649.81,512.03l-7.29-17.94c-.04-.09.03-.19.13-.19h2.88c.1,0,.17-.11.13-.2l-5.99-12.88c-.04-.09.02-.2.13-.2h2.91c.1,0,.17-.1.13-.2l-7.06-15.99c-.05-.11-.21-.11-.26,0l-7.06,15.99c-.04.09.03.2.13.2h2.91c.1,0,.17.11.13.2l-5.99,12.88c-.04.09.02.2.13.2h2.88c.1,0,.17.1.13.19l-7.29,17.94c-.04.09.03.19.13.19,0,0-.14,2.28,14.03,2.28s14.03-2.28,14.03-2.28c.1,0,.17-.1.13-.19Z"/>
    <path class="cls-19" d="m4496.24,665.8l-8.31-20.45c-.04-.11.03-.22.15-.22h3.28c.12,0,.2-.12.15-.23l-6.82-14.68c-.05-.11.03-.23.15-.23h3.32c.12,0,.19-.12.15-.23l-8.05-18.22c-.06-.13-.24-.13-.29,0l-8.05,18.22c-.05.11.03.23.15.23h3.32c.12,0,.2.12.15.23l-6.82,14.68c-.05.11.03.23.15.23h3.28c.11,0,.19.12.15.22l-8.31,20.45c-.04.11.03.22.15.22,0,0-.16,2.6,15.99,2.6s15.99-2.6,15.99-2.6c.11,0,.19-.12.15-.22Z"/>
    <path class="cls-19" d="m4613.7,512.06l-4.26-10.47c-.02-.05.02-.11.08-.11h1.68c.06,0,.1-.06.07-.12l-3.49-7.52c-.03-.05.01-.12.07-.12h1.7c.06,0,.1-.06.08-.12l-4.12-9.33c-.03-.07-.12-.07-.15,0l-4.12,9.33c-.02.05.02.12.08.12h1.7c.06,0,.1.06.07.12l-3.49,7.52c-.03.05.01.12.07.12h1.68c.06,0,.1.06.08.11l-4.26,10.47c-.02.05.02.11.08.11,0,0-.08,1.33,8.19,1.33s8.19-1.33,8.19-1.33c.06,0,.1-.06.08-.11Z"/>
    <path class="cls-19" d="m4671.92,512.06l-4.26-10.47c-.02-.05.02-.11.08-.11h1.68c.06,0,.1-.06.07-.12l-3.49-7.52c-.03-.05.01-.12.07-.12h1.7c.06,0,.1-.06.08-.12l-4.12-9.33c-.03-.07-.12-.07-.15,0l-4.12,9.33c-.02.05.02.12.08.12h1.7c.06,0,.1.06.07.12l-3.49,7.52c-.03.05.01.12.07.12h1.68c.06,0,.1.06.08.11l-4.26,10.47c-.02.05.02.11.08.11,0,0-.08,1.33,8.19,1.33s8.19-1.33,8.19-1.33c.06,0,.1-.06.08-.11Z"/>
    <path class="cls-19" d="m4537.71,646.36l-4.26-10.47c-.02-.05.02-.11.08-.11h1.68c.06,0,.1-.06.07-.12l-3.49-7.52c-.03-.05.01-.12.07-.12h1.7c.06,0,.1-.06.08-.12l-4.12-9.33c-.03-.07-.12-.07-.15,0l-4.12,9.33c-.02.05.02.12.08.12h1.7c.06,0,.1.06.07.12l-3.49,7.52c-.03.05.01.12.07.12h1.68c.06,0,.1.06.08.11l-4.26,10.47c-.02.05.02.11.08.11,0,0-.08,1.33,8.19,1.33s8.19-1.33,8.19-1.33c.06,0,.1-.06.08-.11Z"/>
    <path class="cls-19" d="m4451.03,667.86l-4.26-10.47c-.02-.05.02-.11.08-.11h1.68c.06,0,.1-.06.07-.12l-3.49-7.52c-.03-.05.01-.12.07-.12h1.7c.06,0,.1-.06.08-.12l-4.12-9.33c-.03-.07-.12-.07-.15,0l-4.12,9.33c-.02.05.02.12.08.12h1.7c.06,0,.1.06.07.12l-3.49,7.52c-.03.05.01.12.07.12h1.68c.06,0,.1.06.08.11l-4.26,10.47c-.02.05.02.11.08.11,0,0-.08,1.33,8.19,1.33s8.19-1.33,8.19-1.33c.06,0,.1-.06.08-.11Z"/>
    <path class="cls-19" d="m4414.71,688.52l-4.26-10.47c-.02-.05.02-.11.08-.11h1.68c.06,0,.1-.06.07-.12l-3.49-7.52c-.03-.05.01-.12.07-.12h1.7c.06,0,.1-.06.08-.12l-4.12-9.33c-.03-.07-.12-.07-.15,0l-4.12,9.33c-.02.05.02.12.08.12h1.7c.06,0,.1.06.07.12l-3.49,7.52c-.03.05.01.12.07.12h1.68c.06,0,.1.06.08.11l-4.26,10.47c-.02.05.02.11.08.11,0,0-.08,1.33,8.19,1.33s8.19-1.33,8.19-1.33c.06,0,.1-.06.08-.11Z"/>
    <path class="cls-19" d="m4153.85,765.21l-3.43-8.45s.01-.09.06-.09h1.36s.08-.05.06-.09l-2.82-6.07s.01-.09.06-.09h1.37s.08-.05.06-.09l-3.33-7.53c-.02-.05-.1-.05-.12,0l-3.33,7.53s.01.09.06.09h1.37s.08.05.06.09l-2.82,6.07s.01.09.06.09h1.36s.08.05.06.09l-3.43,8.45s.01.09.06.09c0,0-.07,1.07,6.61,1.07s6.61-1.07,6.61-1.07c.05,0,.08-.05.06-.09Z"/>
    <path class="cls-19" d="m4205.16,757.56l-8.33-20.5c-.04-.11.03-.22.15-.22h3.29c.12,0,.2-.12.15-.23l-6.84-14.72c-.05-.11.03-.23.15-.23h3.33c.12,0,.19-.12.15-.23l-8.07-18.26c-.06-.13-.24-.13-.29,0l-8.07,18.26c-.05.11.03.23.15.23h3.33c.12,0,.2.12.15.23l-6.84,14.72c-.05.11.03.23.15.23h3.29c.11,0,.19.12.15.22l-8.33,20.5c-.04.11.03.22.15.22,0,0-.16,2.61,16.03,2.61s16.03-2.61,16.03-2.61c.11,0,.19-.12.15-.22Z"/>
    <path class="cls-23" d="m3784.35,820.85l-8.33-20.5c-.04-.11.03-.22.15-.22h3.29c.12,0,.2-.12.15-.23l-6.84-14.72c-.05-.11.03-.23.15-.23h3.33c.12,0,.19-.12.15-.23l-8.07-18.26c-.06-.13-.24-.13-.29,0l-8.07,18.26c-.05.11.03.23.15.23h3.33c.12,0,.2.12.15.23l-6.84,14.72c-.05.11.03.23.15.23h3.29c.11,0,.19.12.15.22l-8.33,20.5c-.04.11.03.22.15.22,0,0-.16,2.61,16.03,2.61s16.03-2.61,16.03-2.61c.11,0,.19-.12.15-.22Z"/>
    <path class="cls-23" d="m3749.4,826.23l-10.38-25.53c-.05-.13.04-.28.19-.28h4.09c.15,0,.24-.15.18-.29l-8.52-18.33c-.06-.13.04-.29.18-.29h4.14c.15,0,.24-.15.18-.28l-10.05-22.74c-.07-.16-.3-.16-.37,0l-10.05,22.74c-.06.13.04.28.18.28h4.14c.15,0,.24.15.18.29l-8.52,18.33c-.06.13.04.29.18.29h4.09c.14,0,.24.14.19.28l-10.38,25.53c-.05.13.04.28.19.28,0,0-.2,3.24,19.96,3.24s19.96-3.24,19.96-3.24c.14,0,.24-.14.19-.28Z"/>
    <path class="cls-23" d="m3147.61,1032.66l-9.67-23.8c-.05-.12.04-.26.17-.26h3.82c.14,0,.23-.14.17-.27l-7.94-17.09c-.06-.12.03-.27.17-.27h3.87c.14,0,.23-.14.17-.26l-9.37-21.21c-.07-.15-.28-.15-.34,0l-9.37,21.21c-.05.12.04.26.17.26h3.87c.14,0,.23.14.17.27l-7.94,17.09c-.06.12.03.27.17.27h3.82c.13,0,.22.13.17.26l-9.67,23.8c-.05.12.04.26.17.26,0,0-.19,3.03,18.62,3.03s18.62-3.03,18.62-3.03c.13,0,.22-.13.17-.26Z"/>
    <path class="cls-23" d="m3260.68,985.09l-6.55-16.12c-.03-.08.03-.17.12-.17h2.59c.09,0,.15-.1.11-.18l-5.38-11.58c-.04-.08.02-.18.11-.18h2.62c.09,0,.15-.09.12-.18l-6.34-14.36c-.04-.1-.19-.1-.23,0l-6.34,14.36c-.04.08.02.18.12.18h2.62c.09,0,.15.1.11.18l-5.38,11.58c-.04.08.02.18.11.18h2.59c.09,0,.15.09.12.17l-6.55,16.12c-.03.08.03.17.12.17,0,0-.13,2.05,12.61,2.05s12.61-2.05,12.61-2.05c.09,0,.15-.09.12-.17Z"/>
    <path class="cls-23" d="m3206.73,1018.19l-6.55-16.12c-.03-.08.03-.17.12-.17h2.59c.09,0,.15-.1.11-.18l-5.38-11.58c-.04-.08.02-.18.11-.18h2.62c.09,0,.15-.09.12-.18l-6.34-14.36c-.04-.1-.19-.1-.23,0l-6.34,14.36c-.04.08.02.18.12.18h2.62c.09,0,.15.1.11.18l-5.38,11.58c-.04.08.02.18.11.18h2.59c.09,0,.15.09.12.17l-6.55,16.12c-.03.08.03.17.12.17,0,0-.13,2.05,12.61,2.05s12.61-2.05,12.61-2.05c.09,0,.15-.09.12-.17Z"/>
    <path class="cls-23" d="m3085.13,1063.43l-6.55-16.12c-.03-.08.03-.17.12-.17h2.59c.09,0,.15-.1.11-.18l-5.38-11.58c-.04-.08.02-.18.11-.18h2.62c.09,0,.15-.09.12-.18l-6.34-14.36c-.04-.1-.19-.1-.23,0l-6.34,14.36c-.04.08.02.18.12.18h2.62c.09,0,.15.1.11.18l-5.38,11.58c-.04.08.02.18.11.18h2.59c.09,0,.15.09.12.17l-6.55,16.12c-.03.08.03.17.12.17,0,0-.13,2.05,12.61,2.05s12.61-2.05,12.61-2.05c.09,0,.15-.09.12-.17Z"/>
    <path class="cls-20" d="m3781.56,1582.38h41.9c1.46,0,2.45,1.48,1.9,2.83l-50.72,124.79h301.55l-50.72-124.79c-.55-1.35.44-2.83,1.9-2.83h41.9c1.5,0,2.5-1.56,1.86-2.92l-87.18-187.61c-.63-1.36.36-2.92,1.86-2.92h42.42c1.48,0,2.48-1.53,1.88-2.88l-102.83-232.77c-.72-1.63-3.04-1.63-3.76,0l-102.83,232.77c-.6,1.36.39,2.88,1.88,2.88h42.42c1.5,0,2.5,1.56,1.86,2.92l-87.18,187.61c-.63,1.36.36,2.92,1.86,2.92Z"/>
    <path class="cls-23" d="m3574.83,593.08l-5.07-12.48c-.03-.06.02-.14.09-.14h2c.07,0,.12-.07.09-.14l-4.16-8.96c-.03-.07.02-.14.09-.14h2.03c.07,0,.12-.07.09-.14l-4.91-11.12c-.03-.08-.15-.08-.18,0l-4.91,11.12c-.03.06.02.14.09.14h2.03c.07,0,.12.07.09.14l-4.16,8.96c-.03.07.02.14.09.14h2c.07,0,.12.07.09.14l-5.07,12.48c-.03.06.02.14.09.14,0,0-.1,1.59,9.76,1.59s9.76-1.59,9.76-1.59c.07,0,.12-.07.09-.14Z"/>
    <path class="cls-26" d="m3688.87,1691.77h41.9c1.46,0,2.45,1.48,1.9,2.83l-6.26,15.4h212.62l-6.26-15.4c-.55-1.35.44-2.83,1.9-2.83h41.9c1.5,0,2.5-1.56,1.86-2.92l-87.18-187.61c-.63-1.36.36-2.92,1.86-2.92h42.42c1.48,0,2.48-1.53,1.88-2.88l-102.83-232.77c-.72-1.63-3.04-1.63-3.76,0l-102.83,232.77c-.6,1.36.39,2.88,1.88,2.88h42.42c1.5,0,2.5,1.56,1.86,2.92l-87.18,187.61c-.63,1.36.36,2.92,1.86,2.92Z"/>
    <path class="cls-4" d="m3198.24,1675.26h34.5c1.2,0,2.02,1.22,1.57,2.33l-13.17,32.41h191.12l-13.17-32.41c-.45-1.11.37-2.33,1.57-2.33h34.5c1.24,0,2.06-1.28,1.53-2.4l-71.78-154.48c-.52-1.12.3-2.4,1.53-2.4h34.93c1.22,0,2.04-1.26,1.55-2.38l-84.67-191.66c-.59-1.34-2.5-1.34-3.09,0l-84.67,191.66c-.49,1.12.32,2.38,1.55,2.38h34.93c1.24,0,2.06,1.28,1.53,2.4l-71.79,154.48c-.52,1.12.3,2.4,1.53,2.4Z"/>
    <path class="cls-20" d="m4385.02,1492.61h299.98v-672.16l-60.35-136.61c-.84-1.9-3.53-1.9-4.37,0l-119.49,270.47c-.7,1.58.46,3.35,2.18,3.35h49.3c1.74,0,2.9,1.81,2.17,3.39l-101.3,217.99c-.74,1.58.42,3.39,2.17,3.39h48.69c1.69,0,2.85,1.72,2.21,3.29l-123.4,303.59c-.64,1.57.52,3.29,2.21,3.29Z"/>
    <path class="cls-4" d="m4286.88,1448.06h48.69c1.69,0,2.85,1.72,2.21,3.29l-105.13,258.65h442.78l-105.13-258.65c-.64-1.57.52-3.29,2.21-3.29h48.69c1.74,0,2.9-1.81,2.16-3.39l-101.3-217.99c-.74-1.58.42-3.39,2.16-3.39h49.3c1.73,0,2.88-1.77,2.18-3.35l-119.49-270.47c-.84-1.9-3.53-1.9-4.37,0l-119.49,270.47c-.7,1.58.46,3.35,2.18,3.35h49.3c1.74,0,2.9,1.81,2.16,3.39l-101.3,217.99c-.74,1.58.42,3.39,2.16,3.39Z"/>
    <path class="cls-26" d="m3966.66,1533.73h56.16c1.95,0,3.29,1.98,2.55,3.79l-70.11,172.48h408.4l-70.1-172.48c-.74-1.81.6-3.79,2.55-3.79h56.16c2.01,0,3.35-2.09,2.5-3.91l-116.84-251.44c-.85-1.83.48-3.91,2.5-3.91h56.86c1.99,0,3.32-2.05,2.52-3.87l-137.82-311.96c-.97-2.19-4.07-2.19-5.04,0l-137.82,311.96c-.8,1.82.53,3.87,2.52,3.87h56.86c2.01,0,3.35,2.09,2.5,3.91l-116.84,251.44c-.85,1.83.48,3.91,2.5,3.91Z"/>
    <path class="cls-4" d="m3470.74,1606.79h33.25c1.16,0,1.95,1.17,1.51,2.24l-41.04,100.97h240.86l-41.04-100.97c-.44-1.07.35-2.24,1.51-2.24h33.25c1.19,0,1.98-1.24,1.48-2.32l-69.17-148.86c-.5-1.08.29-2.32,1.48-2.32h33.66c1.18,0,1.97-1.21,1.49-2.29l-81.59-184.69c-.57-1.3-2.41-1.3-2.98,0l-81.59,184.69c-.48,1.08.31,2.29,1.49,2.29h33.66c1.19,0,1.98,1.24,1.48,2.32l-69.17,148.86c-.5,1.08.29,2.32,1.48,2.32Z"/>
    <path class="cls-4" d="m2853.46,1596.39h31.06c1.1,0,1.83,1.14,1.36,2.14l-51.8,111.47h189.34l-51.8-111.47c-.46-1,.26-2.14,1.36-2.14h31.06c1.09,0,1.82-1.12,1.38-2.11l-75.3-170.44c-.53-1.2-2.22-1.2-2.75,0l-75.3,170.44c-.44.99.29,2.11,1.38,2.11Z"/>
    <path class="cls-20" d="m2644.84,1629.96h22.17c.77,0,1.3.78,1.01,1.5l-31.93,78.55h169.7l-31.93-78.55c-.29-.71.24-1.5,1.01-1.5h22.17c.79,0,1.32-.82.99-1.54l-46.12-99.24c-.33-.72.19-1.54.99-1.54h22.44c.79,0,1.31-.81.99-1.53l-54.39-123.13c-.38-.86-1.61-.86-1.99,0l-54.4,123.13c-.32.72.21,1.53.99,1.53h22.44c.79,0,1.32.82.99,1.54l-46.12,99.24c-.33.72.19,1.54.99,1.54Z"/>
    <path class="cls-26" d="m4507.77,1361.17h60.03c2.09,0,3.51,2.12,2.73,4.05l-140.14,344.78h254.6v-904.31l-121.14,274.21c-.86,1.95.57,4.13,2.69,4.13h60.78c2.15,0,3.58,2.23,2.67,4.18l-124.9,268.78c-.91,1.95.52,4.18,2.67,4.18Z"/>
  </g>
  <g id="Layer_4" data-name="Layer 4">
    <path class="cls-7" d="m2818.79,0h-426.14c7.92,30.32,29.42,35.8,29.42,35.8-29.14-6.8-50.99,18.7-50.99,18.7,5.04-23,4.78-40.81.74-54.5h-175.56c11.96,13.15,39.75,25.6,39.75,25.6-47.67,0-47.03,55.31-47.03,55.31-18.21-111.29-94.7-23.01-94.7-23.01,6.83-22.96,1.05-42.07-14.71-57.9h-1001.16c-16.73,23.31-29.49,49.4-29.49,49.4-29.14-10.2-58.28,28.9-58.28,28.9-9.11-35.7-111.09-49.3-111.09-49.3C904.19,17.91,916.17,8.31,918.25,0h-473.5c2.33,9.85,4.98,17.1,4.98,17.1-61.92-8.5-87.42,108.8-87.42,108.8,5.46-25.5-12.75-36.95-12.75-36.95,45.53-53.95,0-51.45,0-51.45C344.6,23.03,339.73,10.61,334.95,0h-95.01c-12.58,29.93-19.68,61.3-19.68,61.3-122.02-17-76.49,68-76.49,68-123.84,0-40.07,95.2-40.07,95.2-43.71-27.2-54.64,6.8-54.64,6.8-38.24-47.6-59.83-22.1-59.83-22.1v1500.81h2188.79c30.96-57.19-18.21-77.11-18.21-77.11,12.75-25.5-1.82-34-1.82-34,76.49-17,77.99-100.3,77.99-100.3,0,0,25.81,73.1,85.95,81.6,60.14,8.5,96.49-90.1,96.49-90.1,0,0,49.17,49.3,111.09,25.5,61.92-23.8,14.57-109.65,14.57-109.65,180.3-313.64-145.69-353.59-145.69-353.59,41.89-15.3,32.78-52.31,32.78-52.31,43.71-4.71,41.89-24.32,41.89-24.32,0,0,80.13,68.13,120.2-23.67,40.07-91.8-63.74-113.9-63.74-113.9,10.93-23.8-30.72-57.8-30.72-57.8,22.1-5.1,0-35.7,0-35.7,56.7,5.1,56.21-66.3,56.21-66.3,76.49-11.9,85.6-113.9,85.6-113.9,200.33-54.4,58.28-244.79,58.28-244.79-9.11-86.7-98.34-81.6-98.34-81.6,45.53-44.2,23.68-47.6,23.68-47.6,125.66-23.8,109.27-73.1,109.27-73.1C2842.08,84.73,2835.56,31.92,2818.79,0Zm-957.32,1032.53v-9.98c25.11,11.51,60.41-19.96,60.41-19.96h16.45c-4.93,7.68,4.11,33.77,4.11,33.77-54.27-16.12-80.96-3.84-80.96-3.84Zm169.42-72.43s-40.09-32.26-70.5-28.39c0,0,27.65-28.39,19.35-54.19,0,0,37.32-24.04,45.62-35.25,0,0,51.15,18.84,76.03,21.24,0,0-70.5,56.59-70.5,96.59Zm310.93,241.95s-16.31,2.4-15.45,13.62c0,0-42.91-20.83-51.49,21.63,0,0-26.61-15.22-41.2-10.41,0,0-33.47-7.21-50.64-5.61,0,0,13.73-4.81,15.45-9.61,0,0,26.61,11.22,58.36-20.03,0,0,63.51-16.82,90.97-74.5,0,0-21.46,70.5-6.01,84.92Zm30.72-564.88s-30.62,9.78-41.07,25.8c-1.05,1.98-1.72,3.09-1.72,3.09.48-1.06,1.07-2.09,1.72-3.09,5.94-11.22,23.82-50.4-1.72-74.25,0,0,61.91-11.9,77.39-61.19,0,0,7.28,28.05,20.94,29.75,0,0-63.73,49.29-55.54,79.89Z"/>
    <g>
      <path class="cls-22" d="m362.31,125.89c1.41-4.6,2.58-9.18,3.61-13.74-2.44,8.36-3.61,13.74-3.61,13.74Z"/>
      <path class="cls-22" d="m-5.39,327.69c10.15,3.3,26.54-7.32,35.69-10.87,27.79-10.77,56.07-20.69,85.26-27.65,32.73-7.8,66.68-11.81,100.43-8.76-3.64-12.7,6.09-25.05,15.21-35.07,13.58-14.93,28.64-30.72,49.11-35.02,23.59-4.95,49.96,9.24,57.2,30.77,16.09-39.11,62.41-63.2,107.27-62.32,10.54.21,21.19,1.63,30.87,5.54,24.49,9.9,38.67,33.49,51.1,55.53.26-22.47,22.53-42.66,46.6-42.24,9.64-29.82,50-47.08,80.49-34.41-12.62-12.89-27.68-23.7-44.27-31.77-10.49-5.1-23.09-9.11-33.88-4.6-14.5,6.07-17.81,23.55-19.17,38.33-10.75-10.19-27.93-13.96-42.41-9.31-5.01-16.82-21.83-28.22-38.94-35.26-11.81-4.86-24.89-8.34-37.56-6.04-12.67,2.3-24.53,11.79-25.39,23.81-15.05-12.29-30.65-17.46-49.91-12.45,5.46-25.5-12.75-36.95-12.75-36.95,45.53-53.95,0-51.45,0-51.45C344.6,23.03,339.73,10.61,334.95,0h-95.01c-12.58,29.93-19.68,61.3-19.68,61.3-122.02-17-76.49,68-76.49,68-123.84,0-40.07,95.2-40.07,95.2-43.71-27.2-54.64,6.8-54.64,6.8-38.24-47.6-59.83-22.1-59.83-22.1v115.16c1.64,1.53,3.43,2.71,5.37,3.34Z"/>
    </g>
    <path class="cls-22" d="m2231.53,1044.01c-26.72,1.63-60.64-.82-69.96-24.25-7.11-17.88,6.62-38.26,24.93-46.74s39.69-8.12,60.11-7.59c-27.86-.2-54.06-20.5-59.4-46.02-5.35-25.52,10.72-53.53,36.45-63.52-16.43,5.61-27.93-20.03-16.7-32.54,11.24-12.51,31.12-13.5,48.61-13.51-9.01-28.5-46.49-45.81-76.23-35.21,14.51-19.23,1.71-50.34-22.41-56.25,35.28,6.73,57.88-45.19,35.78-72.93-22.52-28.27-65.15-33.52-102.89-33.69,20.04-28.09-10.07-72.75-45.87-68.05,20.96-13.06,11.72-47.08-10.97-57.29s-49.97-3.19-72.49,7.36c2.6-37.29-22.78-72.4-55.53-93.89-32.75-21.49-72.16-31.89-110.72-41.92,39.36,5.36,80.92-5.17,111.97-28.38,8.11,78.44,101.63,138.71,183.08,117.98-7.12,25.2,8.2,54.2,33.93,64.29,25.74,10.09,58.64-.03,72.93-22.42,27.29,19.38,66.52,22.87,97.23,8.63-9.61-35.55-39.55-65.71-76.8-77.35,22.85-1.08,38.6-28.82,26.73-47.08,29.93,9.17,65.98-12.14,69.9-41.32-35.15,14.89-79.04,9.81-109.23-12.64,12.51.97,19.69-13.09,21.33-24.7,6.69-47.36-19.7-97.35-64.02-121.24-48.92,49.55-151.73,32.29-179.08-30.07-5.63-12.84-8.7-27.22-18.74-37.45-8.84-9.01-21.74-13.36-34.1-17.39-18.84-6.14-37.67-12.29-56.51-18.43-24.82-8.09-50.78-16.31-76.83-13.03-26.05,3.28-51.91,21.97-52.6,46.5-.25,8.83,2.59,16.97,6.78,24.83-10.43,6.59-17.28,17.01-23.18,27.4-11.69,20.58-19.93,47.67-8.42,66.75-13.12-15.8-27.49-31.06-46.72-39.45-22.66-9.88-50.57-8.47-71.95,3.64-21.38,12.11-35.61,34.57-36.67,57.9-3.25-12.88-19.24-19.4-33.41-19.47-37.51-.19-69.79,35.62-64.67,70.3,3.62,24.45,24.45,44.64,49.39,52.42,2.81,6.04,6.41,11.79,10.46,17.38-6.04,9.61-7.91,22.28-4.4,33.11,6.33,19.52,24.31,33.57,42.19,45.29,6.55,4.29,13.21,8.43,19.98,12.41.42,1.66.8,3.33,1.17,5.01-21.4-2.12-43.47,1.76-61.92,12.16-6.47,3.65-12.96,9.14-15.15,15.5,1.06-24.88-1.56-50.83-17.3-70.62-17.33-21.78-55.7-30.4-75.59-10.62,7.46-22.09,14.99-44.56,15.29-67.72.3-23.15-7.67-47.51-26.6-62.48-22.19-17.57-54.16-18.85-83.11-16.12,15.23-4.86,30.84-9.92,43.17-19.58,12.33-9.66,20.82-25.1,17.08-39.71-5.6-21.88-33.54-30.82-57.48-33.39,17.25-9.33,30.88-25.47,33.47-43.92,2.59-18.45-7.43-38.62-25.56-46.35-9.41-4.01-20.05-4.58-30.39-4.73-26.9-.38-55.34,2.13-77.34,16.58-18.39,12.07-30.03,34.83-25.26,54.54-7.21-11.14-20.49-19.01-34.42-21.54-18.23-3.31-37.19,1.14-54.12,8.26-17.85,7.5-36.53,22.9-31.92,40.66-10.49-5.22-22.06-9.17-33.81-10.9-65.14-25.21-138.8-31.55-207.03-14.63-10.02,40.23-20.05,80.46-30.07,120.7-101.55-12.55-207.93,13.2-290.16,70.21-7.74-37.25-45.2-67.21-85.82-68.63-40.62-1.42-80.38,25.85-91.07,62.46-32.71-6.36-67.93,20.42-67.88,51.61-15.68-6.54-36.51,4.51-38.52,20.43-28.15-84.29-119.37-154.56-214.75-160.94-10.93-.73-20.36.28-28.51,2.71v1464.68h2066.32c1.58-.78,3.16-1.55,4.73-2.32,36.03-17.72,78.3-52.63,58.41-85.8,30.5-5.56,45.16-46.47,24.38-68.04,23.61,3.27,48.1.89,70.49-6.85,4.9-17.99-11.31-38.22-31.18-38.92,7.38-7.71,14.77-15.41,22.15-23.12-6.69-8-13.38-16.01-20.07-24.01,20.45-13.45,28.1-41.41,17.06-62.37-11.04-20.96-39.44-32.37-63.34-25.46-18.24-42.68-14.93-92.9,8.77-133.18-19.36,6.95-38.52-16.12-34.45-35.11,4.07-18.99,21.55-32.52,37.92-44.41-22.99-12.76-30.53-44.67-15.42-65.27,26.58,34.93,97.5,20.13,105.61-22.04,22.44,23.24,72.99-3.08,63.6-33.12-9.39-30.03-67.17-26.83-72.7,4.03Zm-370.06-11.48v-9.98c25.11,11.51,60.41-19.96,60.41-19.96h16.45c-4.93,7.68,4.11,33.77,4.11,33.77-54.27-16.12-80.96-3.84-80.96-3.84Zm169.42-72.43s-40.09-32.26-70.5-28.39c0,0,27.65-28.39,19.35-54.19,0,0,37.32-24.04,45.62-35.25,0,0,51.15,18.84,76.03,21.24,0,0-70.5,56.59-70.5,96.59Z"/>
    <path class="cls-17" d="m1023.21,477.5c-2.48-5.11-4.33-11.77-.13-15.79,2.91-2.79,7.56-3.02,11.74-3.07,16.14-.2,32.27-.39,48.41-.59-10.6-17.64-3.48-42.61,15.11-53,18.59-10.39,45.53-4.45,57.18,12.61,12.98-11.29,36.09-9.95,47.47,2.75,9.69-33.23,54.36-42.84,91.05-46.46,10.16-1,21.13-1.86,29.93,2.98,11.88,6.52,15.52,21.05,15.21,33.91-.31,12.86-3.38,25.92-.24,38.44,9.23-16.81,32.27-25.76,51.55-20.03s32.52,25.49,29.62,44.18c22.6-18.9,59.86-20.13,83.84-2.77,35.57-44.65,110.61-56.13,159.59-24.43-16.55-36.31-59.53-66.89-50-105.33,4.44-17.93,20.57-32.04,39.06-38.43s39-5.89,58.34-2.32c5.89,1.09,11.94,2.55,16.6,6.09,5.56,4.22,8.38,10.77,10.56,17.15,14.95,43.59,10.09,92.77-13.15,133.07,27.79-10.25,60.07,16.53,58.56,44.38-1.52,27.85-28.79,50.27-58.16,55.41s-59.65-3.76-86.08-16.78c-5.4-2.66-11.25-6.19-12.33-11.79,6.9,12.7-6.22,26.63-18.41,35.2-37.27,26.2-78.1,47.98-121.2,64.64,30.12-5.01,61.86-1.18,89.63,10.8,6.1,2.63,12.23,5.82,16.07,10.97,11.52,15.43-2.83,39.48,9.28,54.51-2.43-54.13,13.35-114.9,62.68-143.44,17.24-9.97,41.31-14.51,56.78-2.27,21.22,16.8,10.4,48.6,15,74.22,7.71-11.43,26.25-12.4,38.8-5.66s20.5,18.82,27.93,30.41c10.58,16.52,21.57,35.61,15.7,54.06-7.02,22.08-34.06,31.75-57.69,38.38,36.6,13.51,70.27,39.46,81,74.81s-8.66,79.23-46.57,89.13c12.85,4.67,21.99,17.09,22.07,29.96.08,12.87-8.92,25.38-21.71,30.19-19.66,7.39-43.68-2.75-62.55,6.25-5.32,2.54-9.8,6.45-15.19,8.84-15.77,6.99-34.68-.71-48.06-11.18-32.12-25.13-47.63-67.42-38.74-105.65-11.54-7.06-23.46-14.26-37-16.73s-29.26.92-37.08,11.53c-3.92,5.31-5.48,11.82-6.48,18.2-3.49,22.19-1.14,45.15,6.78,66.33-19.37,1.88-39.05-.79-58.36,1.59-19.31,2.38-39.6,11.57-46.32,28.63-7.46,18.93,5.23,40.77,23.69,51.25,18.46,10.48,41.06,12.09,62.67,12.11-18.13,6.52-22.71,30.74-12.6,46.22,10.11,15.49,29.85,23.19,49,26.24,24.72,3.94,50.03,1.77,75-.41-71.18,20.21-145.83,29.75-220.21,28.13-11.06-.24-22.43-.79-32.53-5-20.03-8.33-30.54-28.69-46.61-42.61-33.46-28.98-85.07-26.41-130.48-22.04-14.42,1.39-29.66,3.07-41.16,11.32-12,8.61-17.63,22.73-26.89,33.91-9.27,11.18-26.9,19.55-39.18,11.27-4.71-3.18-7.54-8.17-10.21-12.98-25.04-45.14-50.07-90.27-75.11-135.41-9-16.22-18.21-34.9-11.49-52.05,4.25-10.82,14.19-18.79,24.51-25.13,68.63-42.14,160.97-30.34,235.64-62.3,62.08-26.57,107.46-84.5,115.75-147.77,1.21-9.24,1.64-18.85-1.68-27.62-2.42-6.39-6.71-11.99-11.06-17.42-24.39-30.47-52.27-58.51-83-83.49-10.16-8.26-20.92-16.33-33.64-20.49-15.23-4.98-31.86-3.9-47.96-2.77-34.69,2.45-81.6,14.07-115.03,1.83-32.07-11.73-64.27-38.9-77.53-68.68Z"/>
    <path class="cls-17" d="m1546.65,1120.36c33.53,8.61,69.85,7.53,102.73-3.06,4.72,24.97,33.42,43.65,60.16,39.15,22.01-3.7,41.72-20.57,63.73-16.83,19.74,3.35,32.34,23.09,33.07,41.8.73,18.72-7.52,36.6-15.61,53.75,32.94-19.47,80.21-14.22,107.34,11.92,27.13,26.15,31.24,70.41,9.33,100.52,22.32-14.41,58.13-2.84,66.14,21.37-8.77-24.52-14.37-50.03-16.65-75.79-.88-9.9-.91-20.89,5.98-28.47,9.36-10.32,28.33-8.83,38.76.55,10.44,9.38,13.55,24.01,12.47,37.49-4.78-17.23-1.4-36.29,9.08-51.17,6.73-9.55,16.51-17.51,28.2-20.93,29.28-8.56,60.42,14.53,69.64,41.84s2.65,56.83-3.98,84.79c27.34-18.52,73.04.41,76.67,31.76.04-30.57,25.23-59.5,57.28-65.8s67.59,10.71,80.83,38.67c1.13-20.98,33.8-28.86,52.46-17.12,18.66,11.75,25.99,33.67,32.06,53.9-20.6-15.03-56.75,3.33-54.42,27.64,22.12-17.12,62.42,4.13,58.13,30.65-18.58-17-53.18-14.47-68.69,5.03-11.75-17.95-24.83-36.99-45.66-45.03-20.82-8.04-50.74,2.09-52.39,23.07-28.3-1.76-54.24,25.41-49.11,51.45-6.12-22.9-27.23-41.68-52.02-46.29-24.79-4.61-52,5.18-67.06,24.14,15.26-3.52,31.15,9.21,33.02,23.77,1.87,14.57-7.67,28.9-20.71,37.09-7.48,4.7-16.14,7.81-22.9,13.37-9.22,7.58-13.84,18.76-20.28,28.52-18.62,28.26-55.24,45.24-90.62,42.02-10.17-.93-20.71-3.67-27.82-10.53-5.07-4.9-7.89-11.39-10.6-17.72-13.06-30.56-26.13-61.11-39.19-91.67-34.37,31.49-77.55,54.52-124.06,66.19-40.94,10.27-84.27,11.9-124.01,25.65-33.17,11.48-63.11,31.18-97.67,38.25-41.39,8.47-84.33-2.16-124.57-14.52-32.47-9.97-65.89-21.97-88.67-45.75-32.01-33.41-35.98-84.05-22.23-126.99,13.75-42.95,42.56-80.08,70.87-116.28-27.55-13.99-61.03-10.44-92.01-14.98s-65.32-24.92-62.58-54.08c-59.78,25.39-107.02,71.14-164.8,100.28-96.98,48.9-213.13,46.63-323.29,43.12-15.13-.48-30.93-1.13-44.14-8.04-13.21-6.91-22.73-22.18-17.27-35.36-11.26,10.32-31.93,3.66-39.86-9.08-7.93-12.74-6.81-28.5-5.21-43.15,5.58-50.82,14.21-101.3,22.84-151.75,14.06-82.21,28.12-164.43,42.18-246.64,118.26-8.3,201.32-120.82,317.84-141.49,22.3-3.96,46.36-4.14,66.59,5.47,27.79,13.21,42.51,41.5,58.77,66.34,44.22,67.56,113.12,120.75,192.51,148.62,37.92,13.31,80.63,22.56,106.28,51.82l113.16,88.52Z"/>
    <path class="cls-17" d="m-1.88,822.68c15.07,2.49,30.26-2.65,44.46-7.98,37.82-14.19,75.91-30.6,116.64-32.19,24.28-.95,48.47,3.47,72.77,3.5,36.09.05,71.68-9.55,107.75-8.63,74.54,1.89,139.56,48.02,189.38,99.81,25.98,27.01,54.14,58.48,92.95,60.79,59.67,3.56,107.02-64.69,165.66-53.84,45.93,8.5,68.12,61.01,112.06,76.09,42.65,14.63,88.77-10.92,122.18-39.67,9-7.74,17.96-15.98,29.23-20.43,18.79-7.43,40.17-3.06,60.52-1.72,55.49,3.65,112.27-17.8,149.42-56.44,16-16.65,28.83-36.48,48.58-49.14,16.3-10.44,36.61-15.47,50.61-28.51,23.38-21.79,21.13-57.11,17.24-87.74-2.93-23.14-6.39-47.52-21.58-66.01-9.13-11.12-21.8-19.17-34.3-26.94-51.79-32.2-106.12-63.62-167.15-74.94-61.03-11.32-130.81,1.29-171.2,45.47-11.67-23.89-51.36-23.7-72.06-5.93-20.7,17.78-27.29,45.32-32.82,71.06,20.04-7.67,44.51-4.05,61.03,9.02-21.51-1.63-43.5,2.64-62.53,12.14-27.33-16.75-62.81-24.43-93.31-13.43-30.49,11-52.27,43.91-42.53,73.05-32.34-12.16-73.37,7.85-82.45,38.93,8.19-38.49-18.96-81.06-59.22-92.5,25.17,5.91,53.78-2.79,70.1-21.69,30.11,7.7,62.29,15.39,92.03,6.49,29.73-8.9,53.35-41.63,39.16-67.59,20.06-6.84,43.03,3.73,63.49-1.99,26.3-7.35,36.26-41.07,23.09-63.55-13.18-22.48-42.31-33.49-69.77-33.55-27.46-.05-53.89,8.95-79.65,17.84-29.53-39.32-103.94-36.12-129.47,5.57-36.77-26.63-98.68-12.23-117.78,27.38-13.04-10.43-32.16-13.43-48.36-8.35,16.88-9.08,29.2-25.53,31.95-43.59,16.04,11,42.76,2.1,47.72-15.89,4.96-17.99-13.85-37.82-33.58-35.41,11.79-10.07,13.51-28.8,3.71-40.59-9.79-11.79-29.65-14.91-43.04-6.77-8.17-14.66,8.24-32.81,25.87-34.36,17.63-1.54,26.11-1.94,40.85,7.22-7.74-37.25-45.2-67.21-85.82-68.63-40.62-1.42-80.38,25.85-91.07,62.46-32.71-6.36-67.93,20.42-67.88,51.61-15.68-6.54-36.51,4.51-38.52,20.43-28.15-84.29-119.37-154.56-214.75-160.94-10.93-.73-20.36.28-28.51,2.71v574.99c2.79,1.04,5.73,1.85,8.89,2.37Z"/>
    <g>
      <path class="cls-5" d="m1202.96,568.47c-1.14.01.77.42,0,0h0Z"/>
      <path class="cls-5" d="m1984.8,1558.35c30.6-17.59,46.22-55.11,36.37-87.37-9.85-32.26-44.31-56.46-80.24-56.35-10.48-35.7-61.47-54.75-95.44-35.64-2.22-32.19-30.43-61.19-64.53-66.37s-70.7,14-83.73,43.87c-3.78-14.76-25.86-22.04-38.74-12.78,23.55-62.32-32.98-138.45-103.76-139.73,5.69-16.39-2.77-36.02-19.03-44.17-16.26-8.15-38.46-3.88-49.95,9.59-2.07-31.86-19.09-64.38-49.49-78.99-13.75-6.61-30.17-8.32-45.37-5.54,6.8-17.88,4.48-39.07-9.63-52.99-25.14-24.79-76.6-16.37-91.59,14.77-41.38-23.96-106.06-27.28-129.72,12.45-8.45,14.19-9.78,31.16-16.88,45.98-10.5,21.9-34.22,37.75-59.81,39.97,16.74-23.88,33.95-48.93,37.27-77.3,3.33-28.37-12.04-60.84-41.51-68.43-6.05-22.46-35.62-36.15-58.56-27.86,16.29-7.21,25.38-26.67,19.36-42.65,14.81,23.05,56,24.82,73.01,3.13,18.88,29.3,56.15,47.36,92.69,44.9,36.54-2.46,70.65-25.32,84.83-56.84,11.74-3.01,24.55-2.25,35.79,2.13-20.25-19.06-24.07-51.44-8.75-74.16,15.32-22.72,48.25-33.51,75.41-24.72-4.52-28.52,39.21-51.03,62.64-32.23,1.18-18.75,27.51-31.42,44.56-21.44-7.61-14.99-4.68-34.11,7.14-46.49-38.7-29.01-61.61-48.43-68.63-88.22-1.14-20.19.87-40.53,5.95-60.19-4.58-2.94-8.7-6.51-12.17-10.57-20.4,19.18-54.44,24.22-80.2,11.87,3.37-19.28,3.01-39.96-6.84-57.19-9.85-17.23-31.04-29.81-51.55-25.92,2.03-12.52-4.87-25.9-16.62-32.23.18,13.76-15.71,24.48-30.37,23.08-14.66-1.4-26.81-12.12-33.09-24.58-12.38,8.5-30.92,8.09-42.86-.95-3.3,4.47-6.7,9.04-11.44,12.19s-11.18,4.64-16.46,2.37c-2.25-.96-4.28-2.58-6.74-2.76-3.98-.3-7.05,3.16-8.95,6.45-5.26,9.09-7.43,19.7-6.14,29.96.5,3.98,1.62,8.09,4.55,11.01,2.41,2.4,5.77,3.71,8.92,5.18,16.48,7.66,29.69,21.25,36.24,37.3,12.16,1.06,21.22,3.61,32.21,8.58,13.64,7.46,24.46,14.05,15.82,41.31,28.93,1.51,58.31,9.83,79.86,27.92,21.55,18.09,33.81,46.98,26.27,73.1-7.55,26.12-37.53,46.21-65.82,40.32-5.27-3.15-13.31,2.77-11.25,8.29,2.05,5.52,12.29,5.51,14.34,0,18.69,25.81-.54,64.97-32.07,75.18-31.53,10.21-67.71-3.66-89.89-26.95-14.82,35.88-67.24,52.78-102.63,33.08-11.06-6.16-29.9-12.45-32.58-.7,18.35,13.94,38.51,36.71,25.57,55.19-5.1,7.29-14.14,11.17-22.81,14.4-25.9,9.66-54.14,16.99-81.5,11.94-27.36-5.04-53.07-25.68-54.42-51.69-28.62,17.37-64.47-20.19-95.88-26.12-10.25-8.02-24.07-12.42-37.28-10.09-27.89,4.92-46.66,33.23-44.17,59.62-28.12-20.78-73.39-17.16-97.3,7.8-7.17-19.64-35.58-29.35-54.64-18.67,4.43-45.32-3.24-93.68-32.95-129.77-29.71-36.09-85.06-55.8-129.61-37.32-11.43,4.74-23.18,15.29-19.13,26.34-13.19-8.54-25.85-18.76-41.45-22.29-15.6-3.53-35.36,2.79-39.12,17.36-4.12-19.75-32.44-30.94-50.5-19.95-2.53-30.28-35.88-52.12-68.38-53.69-32.5-1.57-63.51,12.25-91.36,27.96-7.63,4.3-15.54,9.18-19.29,16.73-3.59,7.23-2.72,15.61-1.77,23.53,2.14,17.93,4.29,35.86,6.43,53.78-14.56-7.34-34.23-4.39-45.59,6.85-5.04-7.2-12.72-12.7-20.63-15.4v308.49c4.29-.11,8.63-.53,12.77-.93,44.52-4.23,89.63,3.19,132.11,16.34,49.49,15.32,96.28,38.53,136.8,69.16,28.42,21.5,53.81,46.63,84.42,65.33,48.98,29.91,110.38,41.57,167.98,31.88,11-11.86,5.67-31.95,16.87-43.65,3.8-3.97,9.06-6.42,14.18-8.77,16.33-7.5,32.66-14.99,48.99-22.49,11.89-5.46,24.28-11.03,37.52-11.22,20-.28,38.23,12.15,49.25,27.73,11.03,15.58,16.15,34.06,21.09,52.15,13.02-16.33,22.46-35.14,27.56-54.93,20.06,2.06,40.3,2.52,60.44,1.38,7.63-.43,16.11-1.5,20.92-7.05,4.81-5.55,4.14-13.51,3.14-20.59-7.07-49.85-18.6-99.14-34.45-147.2-5.6-16.97-12.08-34.35-25.05-47.34-18.91-18.92-48.24-25.18-75.91-26.61,9.68-19.45,33.29-28.49,54.41-36.93,9.11-3.64,18.56-7.99,26.75-13.44,11.2,20.73,27.19,39.21,46.84,53.46-17.31,16.3-18.27,45.28-2.07,62.55,23.64-2.45,45.61-16.24,56.94-35.77,16.41-2.71,35.66.87,44.76,13.92,9.09,13.04-.2,35.18-16.84,34.38-4.48,17.64,7.53,37.89,26.27,42.62,18.75,4.74,40.71-8.14,43.14-26.12,2.44-17.99-16.78-35.89-35.87-32.59,18.68-6.21,29.12-28.34,21.41-45.39,34.14,3.16,55.92,45.32,37.31,72.22,25.23,18.84,33.34,54.99,18.34,81.7-4.8,8.54-12,16.32-21.61,19.88-28.71,10.64-56.79-19.86-87.67-20.71-21.27-.58-40.72,13.93-49.46,32.04-8.74,18.11-8.36,39.01-4.24,58.49,18.24,86.43,100.45,146.05,175.59,199.35,10.6,7.52,21.48,15.41,27.76,26.36,16.29,28.42-4.13,65.16,8.61,95.12,8.91,20.96,32.73,33.78,56.61,37.17,23.88,3.39,48.16-1.02,71.85-5.41,61.47-11.4,125.51-23.89,174.55-60.31,21.56-16.02,39.56-36.26,62.95-49.86,16.93-9.84,36.04-15.83,54.96-21.73,61.04-19.04,122.08-38.08,183.12-57.11-5.33,32.6-3.61,66.19,5.04,98.17,1.71,6.34,3.87,12.9,8.85,17.51,7.25,6.71,18.54,7.56,28.74,7.1,29.63-1.33,58.81-10.46,83.3-26.08,8.1,13.3,16.21,26.6,24.31,39.91-62.88-1.84-138.76,2.83-169.05,54.3-53.79-21.35-123.69,6.42-144.49,57.41l-12.44,41.6c5.82,24,39.19,29.6,65.54,30.18,117.69,2.6,235.72,5.18,352.88-5.47,35.9-3.27,75.17-9.47,98.42-35.21,27.38-30.31,17.94-82.85-18.54-103.16Zm-711.91-344.55c-6.28-15.19-21.44-26.87-38.6-29.75-14.51-19.2-27.09-49.82-5.8-62.36,7.73-4.55,17.48-4.48,26.62-4.26,21.97.53,43.94,1.07,65.91,1.6,8.31.2,16.75.38,24.97-.55-10.16,26.3,3.52,56.16,17.07,81.77-23.36-26.44-76.87-18.4-90.16,13.55Z"/>
    </g>
    <path class="cls-27" d="m2835.2,318.22c81.67-48.15,73.83-132.86,26.64-127.89s-66.98,34.81-66.98,34.81c0,0-63.94-.71-62.42,32.68,0,0-26.65-6.03-34.53,11.43-7.88,17.46,22.35,36.17,22.35,36.17,0,0,42.63,55.42,114.94,12.79Z"/>
    <path class="cls-27" d="m2902.18,0s-29.69,46.81,19.03,56.05c48.71,9.24,85.25-3.55,85.25-3.55,0,0,46.43,11.37,52.52,3.55,6.09-7.82-57.85-17.05-57.85-17.05,0,0,18.27-18.47,38.82-18.47S3076.55,9.32,3059.39,0h-157.21Z"/>
    <path class="cls-27" d="m3146.52,0s-14.46,35.44-24.36,36.86c-9.9,1.42-24.36-9.24-35.01,0-10.66,9.24-21.31,20.6-5.33,26.29s73.83,25.58,104.28,10.66c30.45-14.92,15.22-31.97,24.36-40.5,9.13-8.53,12.18.71,25.88,1.42S3273.63,8.61,3278.2,0h-131.68Z"/>
    <path class="cls-27" d="m2726.55,563.77c-4.19-.53-8.6-.67-12.48.91-3.4,1.38-6.06,3.93-8.62,6.43-12.16,11.82-25.29,26.56-21.61,42.58,1.51,6.58,5.76,12.29,9.9,17.8,10.94,14.52,23.66,30.18,42.31,33.69,18.08,3.4,36.21-5.94,49.89-17.47,9.26,9.54,26.04,11.74,37.76,4.96,11.72-6.78,17.07-21.79,12.03-33.77,19.64-3.59,39.23-12.92,49.06-29.19,9.83-16.28,6.34-40.05-10.89-49.56-1.68-.92-3.51-1.72-5.45-1.77-5.74-.15-9.3,5.86-10.24,11.15-.94,5.28-.84,11.2-4.65,15.2.36-.38-27.12-1.72-31.19-.5-12.69,3.8-18.15,12.87-28.8,18.87-18.8,10.59-46.27-16.68-67.02-19.31Z"/>
    <path class="cls-17" d="m17.21,39.35c-.55,7.43-.54,15.22,2.96,21.92,5.1,9.77,16.93,15.33,28.54,16.1s23.09-2.51,33.92-6.51c14.6-5.4,28.61-12.18,41.74-20.21,8.56-5.23,16.82-11.05,23.56-18.23,8.67-9.23,14.75-22.44,9.55-33.71-5.91-12.81-22.81-16.95-37.49-19.5-15.66-2.73-31.33-5.46-46.99-8.19-8.62-1.5-17.51-3-26.09-1.31-26.39,5.21-28.25,50.03-29.7,69.64Z"/>
    <path class="cls-5" d="m53.24,611.34c14.37-17.9,30.3-36.68,53.1-43.58,22.8-6.9,53.43,4.99,55.08,27.3,24.68-26.32,65.02-38.92,101.7-31.78,36.68,7.15,68.25,33.76,79.6,67.09,14.18-15.31,39.04-18.6,59.98-13.36s38.92,17.51,56.36,29.53c-3.95-19.68-14.2-38.23-29.1-52.63-6.46-6.24-14.19-11.91-23.35-13.44-9.15-1.53-19.83,2.28-23.23,10.36-7.65-18.77-21.64-41.29-42.93-38.39,2.03-17.96,0-36.89-9.74-52.5-9.74-15.61-28.24-27.17-47.55-26.04-19.31,1.13-37.32,17.32-35.93,35.34-10.34-29.67-54.12-43.79-81.87-26.39-.64-26.71,10.49-53.63,4.1-79.67-5.49-22.37-24.63-41.35-48.22-47.82-15.5-4.25-33.25-3.04-46.42,5.69-13.17,8.73-20.35,25.66-14.6,39.75-4.25-8.4-16.12-12.59-25.26-8.91,5.8-14.15,4.06-31.31-6.32-42.96-10.37-11.66-29.67-16.25-43.89-8.94-18.94,9.74-22.06,33.48-22.94,53.65-1.28,29.49-2.56,58.98-3.84,88.47-.79,18.13-8.84,49.12,10.14,61.44,17.26,11.2,43.2.95,61.99,11.94,19.43,11.36,29.31,35.24,23.12,55.84Z"/>
    <path class="cls-5" d="m881.16,724.97c-5.9,9.59-16.16,16.75-27.69,19.3,9.04-7.45,22.37-8.29,34.29-6.61,7.84,1.11,16.85,4.34,18.58,11.56,1.72-7.07-2.86-15.56,2.03-21.19,1.41-1.62,3.4-2.68,5.38-3.64,17.25-8.36,37.15-11.88,56.48-10-12.58,1.82-24.8-6.81-30.21-17.56-5.41-10.75-5.47-23.11-4.84-34.98,3.28,11.91-5.8,25.04-18.37,28.71-12.57,3.67-26.97-1.28-35.54-10.62,9.59,10.13,6.48,34.28-.13,45.03Z"/>
  </g>
  <g id="Layer_6" data-name="Layer 6">
    <rect class="cls-1" x="-2.39" width="4432.78" height="1710"/>
    <path class="cls-6" d="m1055.57,1472.56c29.22-26.63,54.04-59.34,72.83-95.97-.21,30.68-14.51,58.8-29.31,84.58-9.88,17.22-20.17,34.14-30.87,50.74-5.04,7.83-10.31,15.74-17.44,21.13-6.51,4.92-14.21,7.48-20.95,11.99-8.57,5.74-15.41,14.67-19.19,25.05-19.18-44.47,17.33-72.37,44.93-97.53Z"/>
    <g>
      <path class="cls-6" d="m1883.62,1488.49c-120.72,111.44-298.42,106.37-453.59,148.83,16.58-16.71,25.47-41.59,23.49-65.71-33.1,21.43-66.2,42.86-99.3,64.3,5.45-12.29,7.87-26.07,6.95-39.61-11.61,3.75-23.22,7.51-34.84,11.26,25.89-24.92,42.77-60.05,46.54-96.84-17.38,23.05-34.77,46.1-52.15,69.15,28.61-86.68,37.99-180.37,27.18-271.46-98.14,97.81-212.18,177.74-335.62,235.23,16.91-77.29,57.26-73.98,85.52-147.47,28.26-73.49,47.16-156.06,24.58-231.71-2.93,17.98-11.37,34.91-23.75,47.63,1.89-18.1,3.77-36.19,5.66-54.29-24.15,23.48-48.29,46.97-72.44,70.45-14.72-34.05-29.45-68.1-44.17-102.15-12.9,81-65.49,81.08-134,119.85,44.68-43.05,71.38-106.25,71.88-170.15-58,59.3-119.53,120.78-197.45,142.98-42.16,12.01-91.69,14.36-119.39,50.03,19.08-7.45,39.8-10.2,60.03-7.97-34.54,19.54-63.27,50.35-81.26,87.12,2.23-65.65,4.45-131.3,6.68-196.94-60.47,40.87-122.64,78.93-186.27,114.03,31.73-58.76,50.25-125.44,53.59-193-17.94,29.19-49.79,48.28-82.7,49.57,23.93-82.64,36.56-168.92,37.36-255.34-48.51,55.35-111.86,96-180.7,115.96-1.95-56.66-3.89-113.32-5.84-169.97-48.93,55.84-102.36,107.28-159.49,153.6-22.46,18.21-51.29,33.35-72.52,54.13v690.01h1890.47c15.52-72.75,14.07-149.53-4.47-221.51Z"/>
      <path class="cls-6" d="m2064.97,1618.39l-46.65,54.49c3.99-8.32,7.56-16.87,10.61-25.69,15.2-44.04,15.48-96.26-9.42-135.05-1.8,50.79-63.33,73.96-83.79,119.97-9.73,21.88-9.23,47.03-11.95,71.03-.26,2.27-.56,4.56-.91,6.85h138.29c15.86-18.21,3.83-91.61,3.83-91.61Z"/>
    </g>
    <g>
      <path class="cls-3" d="m565.84,1589.88c-20.49,37.77-30.89,80.86-48.41,120.12h292.5c.55-63.96,40.44-126.32,78.54-179.65-25.79-15.09-27.59-55.69-13.07-82.8,14.52-27.11,40.01-45.17,61.84-66.1,35.62-34.16,62.82-78.05,78.2-126.22-18.92,30.26-44.26,56.01-73.63,74.79,14.06-28.88,28.12-57.75,42.19-86.63-52.87,54.18-108.53,105.33-166.64,153.14,18.02-24.99,36.04-49.99,54.06-74.98-6.07,3.56-12.15,7.13-18.22,10.69,33.09-32.93,61.12-71.54,82.63-113.86-69.84,92.33-187.56,134.38-253.64,229.75-35.19,50.79-52.67,112.52-69.53,172.9,7.33-40.21,14.66-80.42,21.99-120.63-25.2,27.84-50.67,56.05-68.8,89.48Z"/>
      <path class="cls-3" d="m468.53,1571.18c-40.34,25.16-76.52,57.74-106.43,95.84,20.32-33.92,34.12-72.19,40.32-111.8-43.05,43.32-92.94,79.02-146.98,105.19-6.47-25.66,8.15-51.44,22.13-73.51,39.98-63.15,79.95-126.31,119.93-189.46-103.22,83.35-188.81,190.9-248.99,312.56h241.49c26.18-46.27,52.35-92.55,78.53-138.82Z"/>
      <path class="cls-3" d="m1564.28,1670.13c-28.31,10.13-55.58,23.53-81.16,39.87h109.95c2.05-4.99,3.84-10.15,5.34-15.49-14.26-1.28-28.52-2.56-42.77-3.84,2.88-6.85,5.76-13.69,8.64-20.54Z"/>
      <path class="cls-3" d="m27.63,1148.56c-11.26,8.96-21.23,19.13-30.02,30.27v125.45c54.42-87.24,108.84-174.48,163.26-261.72-44.41,35.33-88.82,70.67-133.24,106Z"/>
      <path class="cls-3" d="m33.62,1706.57c.98-29.1,2.87-60.75,21.1-82.58,21.93-26.25,60.71-29.89,83.92-54.89,21.66-23.34,24.71-59.53,41.1-87.26,27.25-46.13,85.6-60.88,118.46-102.74,47.23-60.15,27.95-155.65,70.27-219.75-59.17,56.43-42.69,176.84-113.32,215.85,8.03-28.13,16.06-56.25,24.09-84.38-38.97,52.32-78.97,103.77-119.99,154.31-17.1,21.07-35.3,42.7-59.61,53.2-23.8,10.29-54.69,11.29-67.73,34.7,18.85-44.54,37.7-89.07,56.55-133.61-8.77,33.5-18.64,66.68-29.6,99.46,62.42-102.49,104.04-217.28,145.21-331.13-77.71,62.69-147.33,136.54-206.46,218.81v323.43h35.92c.02-1.15.05-2.3.09-3.43Z"/>
      <path class="cls-3" d="m1481.96,1710c-.12-8.04-.24-16.08-.35-24.12-13.52,6.2-25.82,14.65-37.56,24.12h37.91Z"/>
      <path class="cls-3" d="m943.54,1487.24c1.95-4.14,3.9-8.27,5.84-12.39-2.39,4.06-4.31,8.2-5.84,12.39Z"/>
      <path class="cls-3" d="m1190.99,1600.79c-28.66,41.28-63,78.1-101.47,109.21h102.39c36.78-95.82,102.07-182.65,104.16-285.49-33.39,68.25-66.78,136.51-100.17,204.76-1.64-9.5-3.28-18.99-4.91-28.49Z"/>
      <path class="cls-3" d="m964.74,1748.13c5.72-64.44-46.98-132.64-26.23-189.38-29.43,62.62-57.83,127.51-61.33,197.08-.42,8.42-.55,17.11-1.14,25.68h83.12c2.23-11.31,4.62-22.66,5.57-33.38Z"/>
    </g>
    <path class="cls-2" d="m44,1260.99c9.69-12.53,22.52-21.81,34.86-31.39,55.21-42.87,103.83-95.18,143.4-154.28,5.32,15.49,2.43,33.2-5.05,47.66-7.48,14.46-19.14,26.03-31.65,35.86-28.13,22.13-61.7,37.07-85.41,64.4-20.54,23.67-30.02,57.49-51.73,79.69-29.28,29.94-15.78-27.24-4.42-41.94Z"/>
    <path class="cls-2" d="m238.05,1229.06c-17.91,45.63-54.48,79.66-90.21,111.51-11.68,10.41-23.53,20.92-32.47,34.01-8.34,12.21-13.88,26.31-18.31,40.62-6.04,19.52-10.13,39.72-12.18,60.14,31.98-42.68,72.31-78.33,117.69-104.08-20.03,29.3-36.74,61.15-49.63,94.63,6.18-30.14,33.81-48.6,54.99-69.81,37.7-37.74,58.55-91.39,66.2-145.67,4.67-33.13,4.97-67.6,17.24-98.48,11.43-28.76,32.26-51.94,50.4-76.55,18.14-24.61,34.47-53.2,34.12-84.39-33.55,30.46-63.17,65.75-87.78,104.6-.31-13.31,5.18-31.48-2.72-42.56-19.97,13.84-24.13,60.86-27.82,84.27-4.87,30.9-8.07,62.57-19.52,91.75Z"/>
    <path class="cls-2" d="m106.32,1711.2c-2.6-40.05-2.59-80.82,7.05-119.65,9.65-38.82,29.8-75.85,61.02-98.71,16.39-12.01,35.18-19.73,53.26-28.62,78.87-38.81,145.26-100.53,210.46-161.41-31.19,77.49-106.35,122.92-159.6,185.56-40.05,47.1-69,105.69-117.32,143.12,43.32-53.78,88.41-106.84,142.51-148.29,24.9-19.08,51.51-35.54,76.73-54.15,35.17-25.95,67.58-56.07,96.43-89.61-24.58,57.07-74.84,96.1-121.94,134.23-52.84,42.78-104.55,87.95-147.11,142.04-42.56,54.09-75.83,117.9-87.03,187.24"/>
    <path class="cls-2" d="m318.51,1554.82c34.81-32.89,68.58-67,101.25-102.26,35.19-37.98,70.3-79.57,82.71-131.08,9.15-38.01,6.5-82.14,31.48-111.15-1.64,22.07-.44,44.37,3.57,66.09,4.69-4.87,9.37-9.74,14.06-14.61,8.55,53.32-15.77,106.15-43.35,151.7-27.58,45.55-59.91,90.11-70.33,143.06,30.2-27.19,60.4-54.37,90.6-81.56,9.75-8.78,20.06-17.86,32.59-20.7-5.98,44.84-6.47,90.49-1.46,135.47,46.01-78.28,100.36-151.09,161.68-216.6-39.4,49.98-70.71,107.07-92.18,168.04,1.7-43.22,36.37-76.05,69.72-101.12,33.35-25.08,70.63-51.28,82.44-92.69-18.47,105-118.69,170.87-161.64,267.54-7.58,17.07-13.5,35.33-24.74,49.97-12.51,16.29-30.46,26.61-47.54,37.31-39.52,24.75-76.74,53.6-110.96,85.99-10.3-2.66-20.99-3.63-31.57-2.87,3.39-38.52,35.89-65.36,60.04-94.43,35.28-42.46,55.98-98.18,57.44-154.67-73.58,38.48-140.42,91.24-196.4,154.69-19.19,21.76-45.98,78.35-80.58,62.92-31.12-13.87-24.87-62.14-15.17-88.04,17.24-46.02,54.36-78.88,88.34-110.99Z"/>
    <path class="cls-2" d="m810.07,1601.72c.18-12.84.39-25.9,4.08-38.13,4.45-14.76,13.64-27.32,22.8-39.4,28.81-37.96,59.17-74.6,90.98-109.78,39.55-43.74,81.89-85.99,110.06-138.67,1.47,68.91-18.86,138.15-56.99,194.07-27.79,40.75-64.36,74.18-91.7,115.27-37.99,57.11-56.42,128.4-51.6,198,.75,10.86,7.8,33.79-1.23,42.82-7.57,7.57-21.59,3.69-27.43-3.86-12.44-16.09-1.29-60.75-.94-79.79.87-46.84,1.32-93.68,1.98-140.53Z"/>
    <path class="cls-1" d="m1040.31,1557.44c15.03-1.1,30.2-3.39,43.99-9.78,13.8-6.39,26.2-17.28,32.23-31.87-16.87,40.8-34.57,77.39-75.97,96.39-17.91,8.22-31.05,7.17-35.9-15.19-6.13-28.29,12.87-37.89,35.64-39.55Z"/>
    <path class="cls-2" d="m948.17,1750.85c5.7-27.74,31.14-44.81,52.82-61.57,68-52.59,115.96-128.48,162.46-202.74,4.34,37.8-2.02,76.89-18.05,110.99,42.01-42.2,76.59-92.63,101.47-147.95-12.26,61.2-44.43,116.18-82.75,163.86-38.31,47.68-82.97,89.13-125.19,132.97-15.31,15.9-36.82,33.43-55.89,23.03"/>
    <path class="cls-2" d="m1290.77,1563.93c4.33,29.08,3.09,59.08-3.62,87.65,2.97-1.53,5.93-3.07,8.9-4.6,1.33-.69-38.2,181.33-56.21,107.83-6.73-27.44,14.72-60.37,22.72-85.75,10.9-34.57,19.57-69.87,28.22-105.13Z"/>
    <path class="cls-2" d="m1811.14,1585.76c-16.72,43.6-37.24,85.56-61.22,125.2,35.88-41.23,65.93-88.12,88.86-138.63,7.35,23.8-1.52,49.44-10.29,72.7,9.46-21.4,22.02-41.28,37.1-58.72-7.6,57.28-26.16,112.91-54.23,162.57-2.74,4.85-5.78,9.85-10.47,12.54-5,2.86-11.01,2.63-16.69,2.32-30.42-1.66-154.96,10.92-123.89-58.28,11.65-25.95,50.65-40.17,72.19-55.43,19.05-13.5,69.88-41.4,78.65-64.27Z"/>
    <path class="cls-2" d="m1991.29,1626.62c.36,6.56.71,13.13,1.07,19.69.08,1.41.19,2.93,1.02,4.04,2.64,3.56,7.76-.74,9.71-4.76,8.94-18.41,13.26-39.3,12.41-59.97.9,22.04-27.02,171.95-55,164.77-14.5-3.72-13.82-39.86-12.33-50.55,4.37-31.31,32.48-45.39,43.13-73.22Z"/>
    <ellipse class="cls-6" cx="659.09" cy="1155.34" rx="9.68" ry="10.23"/>
    <ellipse class="cls-6" cx="458.85" cy="919.01" rx="9.68" ry="10.23"/>
    <ellipse class="cls-6" cx="1174.56" cy="1125.54" rx="4.84" ry="5.12"/>
    <ellipse class="cls-6" cx="1570.23" cy="1512.15" rx="16.36" ry="17.29"/>
    <ellipse class="cls-6" cx="2248.27" cy="947.96" rx="9.68" ry="10.23"/>
    <ellipse class="cls-6" cx="1463" cy="1512.15" rx="9.68" ry="10.23"/>
    <ellipse class="cls-2" cx="748.68" cy="1087.59" rx="17.77" ry="18.78"/>
    <ellipse class="cls-3" cx="1920.77" cy="1159.35" rx="9.68" ry="10.23"/>
    <ellipse class="cls-3" cx="2116.36" cy="614.1" rx="4.84" ry="5.12"/>
    <ellipse class="cls-3" cx="121.03" cy="760.85" rx="6.85" ry="7.24"/>
    <ellipse class="cls-6" cx="65.54" cy="840.52" rx="13.7" ry="14.48"/>
    <ellipse class="cls-6" cx="47" cy="533.25" rx="4.84" ry="5.12"/>
    <ellipse class="cls-6" cx="982.83" cy="242.38" rx="9.68" ry="10.23"/>
    <ellipse class="cls-6" cx="1977.09" cy="1402.9" rx="9.68" ry="10.23"/>
    <ellipse class="cls-2" cx="1593.58" cy="1397.79" rx="4.84" ry="5.12"/>
  </g>
</svg>