<?xml version="1.0" encoding="UTF-8"?>
<svg id="Layer_2" data-name="Layer 2" xmlns="http://www.w3.org/2000/svg" viewBox="0 0 224 224">
  <defs>
    <style>
      .cls-1 {
        fill: none;
      }

      .cls-2 {
        fill: #26221d;
      }
    </style>
  </defs>
  <g id="Layer_12" data-name="Layer 12">
    <rect class="cls-1" width="224" height="224"/>
    <g>
      <path class="cls-2" d="m177.5168457,91.40692139c-.17089844-.2109375-.01586914-.52508545.25549316-.51782227l8.90344238.23852539c.24609375.0065918.40600586-.25695801.28637695-.47210693l-20.01965332-36.04394531c-.12121582-.21807861-.43469238-.21807861-.55578613,0l-20.01977539,36.04382324c-.11938477.21520996.04052734.47875977.28662109.47210693l8.82763672-.23828125c.27099609-.00732422.42626953.30627441.25598145.51733398l-7.11755371,8.82196045c.95635986,1.48760986,11.60913086,18.05664062,14.42816162,22.31347656,2.95220947,4.45800781-1.04779053,7.45800781-3.04779053,7.45800781h-9l14.92333984,28.11462402c10.84863281-17.29217529,17.50488281-36.90283203,21.58569336-54.36920166l-9.9921875-12.33850098Z"/>
      <path class="cls-2" d="m112.79585934.72024294l99.42227958,38.60375816c1.28044992.49717407,2.10549446,1.74598668,2.06219705,3.11888849-.60377393,19.14484758-8.15770726,152.16454282-101.68419645,181.05689807-.62934188.19441732-1.31271353.1944171-1.94205528-.00000065C17.12782171,194.60743076,9.57379944,61.5877402,8.9700114,42.44289027c-.04329843-1.37290217.78174568-2.62171561,2.06219577-3.11889033L110.45436438.72024341c.75310925-.29241818,1.58838559-.29241835,2.34149495-.00000047Zm.26483195,206.05501582c78.94939449-24.52232716,85.81116377-136.29330433,86.40225526-153.74046396.04654374-1.37382461-.78112068-2.61785686-2.06252933-3.11540308L113.2609463,17.24966142c-.75310881-.2924176-1.58838447-.2924176-2.34149329,0L26.77998211,49.91939172c-1.28140865.49754621-2.10907307,1.74157847-2.06252933,3.11540308.59109149,17.44715963,7.45286077,129.2181368,86.40225526,153.74046396.62904257.19538576,1.31194069.19538576,1.94098326,0Z"/>
      <g>
        <path class="cls-2" d="m80.8225708,67.71936035h-8.11657715v12.8026123h7.78991699c.84228516,0,2.47363281-.28546143,4.89404297-.859375,1.2232666-.25732422,2.22241211-.91571045,2.99737549-1.97613525.77496338-1.05944824,1.1619873-2.27667236,1.1619873-3.6517334,0-2.03338623-.61114502-3.59338379-1.83544922-4.6829834-1.222229-1.08758545-3.52099609-1.63238525-6.89129639-1.63238525Z"/>
        <path class="cls-2" d="m163.01757812,161.37780762l-18.90039062-35.48699951c-.08776855-.16485596.02539062-.36938477.20263672-.36590576l15.61743164.30743408c.18579102.00366211.29760742-.21936035.19238281-.38342285l-27.93359375-43.48052979c-.10644531-.16589355.0090332-.39099121.19702148-.38323975l10.68054199.43994141c.17785645.00732422.29492188-.19659424.20837402-.36334229l-30.19946289-58.25689697v-.12927246c-.68212891-.24066162-1.42773438-.23687744-2.10400391.0255127l-78.82458496,30.58380127c-1.20043945.46575928-1.97583008,1.63037109-1.93225098,2.91644287.55377197,16.33319092,6.9821167,120.96759033,80.94445801,143.9241333.5892334.18292236,1.22912598.18292236,1.81835938,0,20.7442627-6.43865967,36.17443848-19.3036499,47.6541748-34.84228516.81286621-1.38470459,1.61230469-2.79449463,2.37939453-4.26025391.03967285-.07580566.03967285-.16967773-.00048828-.24511719Zm-27.08166504,4.22491455c-2.12084961,3.40844727-5.08404541,5.99371338-8.89056396,7.75469971-3.80651855,1.76104736-8.60510254,2.64257812-14.39678955,2.64257812-10.16912842,0-17.21020508-2.06256104-21.12628174-6.18670654-3.9151001-4.12414551-6.13140869-9.36602783-6.64807129-15.72460938l17.57806396-1.15997314c.37994385,3.00744629,1.15594482,5.29919434,2.32495117,6.87426758,1.90270996,2.54907227,4.62268066,3.8236084,8.15679932,3.8236084,2.63751221,0,4.66992188-.65136719,6.097229-1.95501709,1.42730713-1.30267334,2.14099121-2.81341553,2.14099121-4.53222656,0-1.63238525-.67950439-3.09289551-2.03845215-4.38250732-1.36096191-1.28857422-4.51416016-2.50579834-9.46252441-3.65167236-8.10247803-1.91784668-13.88110352-4.46789551-17.33282471-7.6472168-3.48083496-3.17932129-5.22076416-7.2310791-5.22076416-12.1583252,0-3.2355957.89056396-6.29327393,2.67169189-9.17199707.58306885-.94293213,1.2723999-1.81286621,2.04821777-2.62341309l-9.62890625-18.76586914c-1.25140381-2.49176025-2.3651123-4.11004639-3.34411621-4.8548584-1.33288574-.97302246-2.84161377-1.46051025-4.52722168-1.46051025h-1.63134766v25.56201172h-18.55712891v-62.98498535l9.27642822.00317383h21.51641846c5.70922852,0,10.0736084.51464844,13.09106445,1.54595947,3.01745605,1.03125,5.4508667,2.9430542,7.300354,5.73535156,1.84844971,2.79333496,2.77319336,6.19378662,2.77319336,10.20330811,0,3.49493408-.70758057,6.50939941-2.12182617,9.04437256-1.41424561,2.53399658-3.36016846,4.58953857-5.8348999,6.16461182-1.57806396,1.00311279-3.7411499,1.83337402-6.48925781,2.49176025,2.20129395.77496338,3.80352783,1.5489502,4.80969238,2.32189941.67944336.5166626,1.66351318,1.62030029,2.95513916,3.31195068,1.28961182,1.69171143,2.1529541,2.99536133,2.5881958,3.91204834l5.49645996,11.21331787c.97253418-.04663086,1.96856689-.07861328,3.01611328-.07861328,7.64013672,0,13.46496582,1.4967041,17.4765625,4.49005127,4.00952148,2.99230957,6.39575195,7.75372314,7.15765381,14.28417969l-17.41522217,1.07452393c-.46240234-2.83551025-1.43438721-4.89807129-2.91595459-6.18670654-1.48260498-1.28857422-3.52807617-1.93292236-6.13848877-1.93292236-2.14801025,0-3.76525879.47949219-4.85284424,1.43841553-1.08758545.9598999-1.63134766,2.12689209-1.63134766,3.50189209,0,1.00317383.44927979,1.90478516,1.34588623,2.70690918.8704834.83026123,2.93707275,1.60418701,6.19976807,2.31988525,8.07537842,1.83239746,13.85900879,3.68792725,17.35296631,5.5635376,3.49389648,1.87561035,6.03588867,4.20349121,7.6270752,6.98077393,1.59014893,2.77819824,2.38623047,5.88616943,2.38623047,9.32275391,0,4.03869629-1.0614624,7.76177979-3.18231201,11.17028809Z"/>
      </g>
    </g>
  </g>
</svg>