<?xml version="1.0" encoding="UTF-8"?>
<svg id="Layer_2" data-name="Layer 2" xmlns="http://www.w3.org/2000/svg" viewBox="0 0 527 388">
  <defs>
    <style>
      .cls-1, .cls-2, .cls-3 {
        fill: none;
      }

      .cls-4 {
        fill: #26221d;
      }

      .cls-4, .cls-2, .cls-3 {
        stroke: #26221d;
        stroke-miterlimit: 10;
        stroke-width: 5px;
      }

      .cls-3 {
        stroke-linecap: round;
      }
    </style>
  </defs>
  <g id="Layer_2-2" data-name="Layer 2">
    <g>
      <path class="cls-2" d="m502.99979407,293.26717803c-.22481364-17.39260318-.44955948-34.78513394-.67437861-52.17774299-.00901198-.69719092-.23999516-1.37032339-.65491758-1.9085619l-48.03636403-62.31290434c-.54572039-.70791-1.35919451-1.11801961-2.21765105-1.11801961h-48.8787055s0,121.40679982,0,121.40679982h38.55898321c1.49613934,0,2.70088541-1.23144519,2.86053386-2.82058982,1.2584357-12.52649982,11.50098157-21.94832161,22.65681326-21.3051204,10.11516787.58323038,18.80967521,9.31609582,20.20698782,20.62785864.19088377,1.54527476,1.38651537,2.71960287,2.8455861,2.71960287h10.46054964c1.60213773,0,2.89468339-1.39998135,2.8725629-3.11132226Z"/>
      <path class="cls-2" d="m230.97468382,297.15674899h34.05903669c1.82268789,0,3.3891105-1.42123358,3.63881699-3.34998421,1.60384562-12.38821738,11.93260562-21.55302841,23.09723291-20.77572601,10.17139449.70818383,18.80094291,9.51251862,20.20043325,20.79819496.23836673,1.92222101,1.82401168,3.32751526,3.63912107,3.32751526h86.92845257s0-45.2395067,0-45.2395067h-171.56309347c-2.03717633,0-3.68863404,1.76419074-3.68863404,3.94043032v37.35864605c0,2.17623958,1.65145771,3.94043033,3.68863403,3.94043033Z"/>
      <path class="cls-2" d="m502.31149314,240.01237129h-66.04139017c-1.87236677,0-3.39021994-1.621466-3.39021994-3.62164567v-36.00641541c0-2.00017967,1.51785317-3.62164567,3.39021995-3.62164567h32.70064372"/>
      <rect class="cls-2" x="213.08981867" y="237.2315978" width="189.41469864" height="10.89548204" transform="translate(615.59433597 485.35867765) rotate(-180)"/>
      <rect class="cls-2" x="218.91796324" y="218.5536286" width="183.58655407" height="15.56497434" transform="translate(621.42248054 452.67223155) rotate(-180)"/>
      <rect class="cls-2" x="210.17574638" y="207.65814656" width="192.32877093" height="10.89548204" transform="translate(612.68026368 426.21177518) rotate(-180)"/>
      <rect class="cls-2" x="216.00389096" y="188.98017736" width="186.50062636" height="15.56497434" transform="translate(618.50840826 393.52532907) rotate(-180)"/>
      <rect class="cls-2" x="223.28907167" y="170.30220816" width="177.7584095" height="15.56497434" transform="translate(624.33655284 356.16939066) rotate(-180)"/>
      <rect class="cls-2" x="218.91796324" y="154.73723382" width="183.58655407" height="10.89548204" transform="translate(621.42248055 320.36994969) rotate(-180)"/>
      <rect class="cls-4" x="342.76603543" y="151.62423895" width="14.57036143" height="99.61583575" transform="translate(700.10243229 402.86431368) rotate(-180)"/>
      <rect class="cls-4" x="262.62904755" y="151.62423895" width="14.57036143" height="99.61583575" transform="translate(539.82845652 402.86431367) rotate(-180)"/>
      <ellipse class="cls-2" cx="465.15707148" cy="296.37850029" rx="16.02739758" ry="17.12147177"/>
      <ellipse class="cls-2" cx="290.31273427" cy="296.37850028" rx="16.02739758" ry="17.12147177"/>
    </g>
    <g>
      <path class="cls-3" d="m103.49731983,68.19948528l59.29672049,52.86887202c.46142885.41140931.72815422,1.02035631.72815422,1.66241153v72.77488297c0,1.19588974-.90751099,2.16534993-2.02698253,2.16534993h-42.16099954c-1.11947154,0-2.02698253-.96946019-2.02698253-2.16534993v-35.5448473c0-1.19588974-.90751099-2.16534993-2.02698253-2.16534993h-27.05226111c-1.11947154,0-2.02698253.96946018-2.02698253,2.16534993v35.5448473c0,1.19588974-.90751099,2.16534993-2.02698253,2.16534993h-41.27225022c-1.11947154,0-2.02698253-.96946019-2.02698253-2.16534993v-72.77488297c0-.64205522.26672537-1.25100222.72815423-1.66241153l59.29672049-52.86887202c.75211484-.67058453,1.84554177-.67058453,2.59765661,0Z"/>
      <path class="cls-3" d="m181.57183722,121.71757858L104.5591771,51.92741924c-1.36240027-1.23462989-3.36053289-1.23660059-4.7250649-.0046602L22.52739693,121.71757857"/>
      <path class="cls-3" d="m143.24787571,86.98776433v-17.7809626c0-1.19588974.90751099-2.16534993,2.02698253-2.16534993h11.27561955c1.11947154,0,2.02698253.96946018,2.02698253,2.16534993v32.09829437"/>
    </g>
    <rect class="cls-1" width="527" height="388"/>
  </g>
</svg>