<?xml version="1.0" encoding="UTF-8"?>
<svg id="Layer_2" data-name="Layer 2" xmlns="http://www.w3.org/2000/svg" viewBox="0 0 437 388">
  <defs>
    <style>
      .cls-1, .cls-2 {
        fill: none;
      }

      .cls-2 {
        stroke: #26221d;
        stroke-linecap: round;
        stroke-miterlimit: 10;
        stroke-width: 5px;
      }
    </style>
  </defs>
  <g id="Layer_2-2" data-name="Layer 2">
    <g>
      <rect class="cls-2" x="129.88017867" y="59.23717593" width="125.80220687" height="85.63991519"/>
      <rect class="cls-2" x="120.38567249" y="52" width="143.60440595" height="7.23717593" rx="1.73882549" ry="1.73882549"/>
      <path class="cls-2" d="m129.88017867,144.87709112h9.49450618v17.35643095c0,1.072208-.87049686,1.94270487-1.94270487,1.94270487h-5.60909645c-1.072208,0-1.94270487-.87049686-1.94270487-1.94270487v-17.35643095h0Z"/>
      <path class="cls-2" d="m246.18787935,144.87709112h9.49450618v17.35643095c0,1.072208-.87049686,1.94270487-1.94270487,1.94270487h-5.60909645c-1.072208,0-1.94270487-.87049686-1.94270487-1.94270487v-17.35643095h0Z"/>
      <line class="cls-2" x1="129.88017867" y1="88.18587966" x2="255.68238553" y2="88.18587966"/>
      <line class="cls-2" x1="129.88017867" y1="117.13458339" x2="255.68238553" y2="117.13458339"/>
      <ellipse class="cls-2" cx="192.7812821" cy="73.7115278" rx="4.74725309" ry="4.82478395"/>
      <ellipse class="cls-2" cx="192.7812821" cy="102.66023152" rx="4.74725309" ry="4.82478395"/>
      <ellipse class="cls-2" cx="192.7812821" cy="130.40273926" rx="4.74725309" ry="4.82478395"/>
    </g>
    <g>
      <path class="cls-2" d="m91.78571762,242.2507189h-41.94621457c-2.19181377,0-3.53188765,2.44593473-2.37756132,4.33958149l3.15193135,5.1706735c.50993337.83653439,1.40930914,1.3455089,2.37756132,1.3455089h77.58856645c.96825218,0,1.86762794-.50897451,2.37756132-1.3455089l3.15193135-5.1706735c1.15432633-1.89364676-.18574754-4.33958149-2.37756132-4.33958149h-41.94621457Z"/>
      <path class="cls-2" d="m94.63585993,311.00389025h-4.51347134c-.39465717,0-.71687192-.3207257-.72509216-.72174129l-1.17201862-57.17566617h8.30769291l-1.17201862,57.17566617c-.00822024.40101558-.330435.72174129-.72509216.72174129Z"/>
      <path class="cls-2" d="m137.36113773,311.00389025h-4.51347134c-.39465717,0-.71687192-.3207257-.72509216-.72174129l-13.04015134-57.17566617h10.68131945l8.32248756,57.17566617c-.00822024.40101558-.330435.72174129-.72509216.72174129Z"/>
      <path class="cls-2" d="m46.22509216,311.00389025h4.51347134c.39465717,0,.71687192-.3207257.72509217-.72174129l13.04015134-57.17566617h-10.68131945s-8.32248756,57.17566616-8.32248756,57.17566616c.00822024.40101558.330435.72174129.72509216.72174129Z"/>
    </g>
    <g>
      <path class="cls-2" d="m393.93640524,258.1311846c-10.90703418,1.42422269-23.36379268,2.41239198-37.10124323,2.41239198-10.9967116,0-23.4757808-.63320872-37.10124323-2.41239198-.13748606,0-.86852363-.01402468-1.45917765-.6143251-.37348689-.37954977-.60441711-.90387398-.60441711-1.48304535v-3.04243502c0-.57917138.23093022-1.10349559.60441711-1.48308216.00014487-.00011043.51589869-.5242874,1.45917765-.61428829,2.3801459-.22711881,27.92024583,2.41239198,37.10124323,2.41239198,9.12710402,0,35.15615595-2.60866386,37.10124323-2.41239198.94936369.09578009,1.45903277.61421467,1.45917765.6143251.37348689.37954977.60441711.90387398.60441711,1.48304535v3.04243502c0,1.15834275-.92386575,2.09737045-2.06359476,2.09737045Z"/>
      <line class="cls-2" x1="327.16483021" y1="259.33738059" x2="322.41757712" y2="308.79141612"/>
      <line class="cls-2" x1="387.19740642" y1="260.00986149" x2="391.94465951" y2="309.46389702"/>
      <line class="cls-2" x1="337.75993124" y1="250.29091067" x2="334.57909453" y2="220.5405592"/>
      <line class="cls-2" x1="377.98399739" y1="249.88636243" x2="381.1648341" y2="220.13601096"/>
      <path class="cls-2" d="m357.96010805,179.5279771h-28.43692122c-5.42870462,0-9.55020952,4.65847135-8.63384861,9.7587016l4.18744664,23.30625616c.72030538,4.0090354,4.36661597,6.93997811,8.63384861,6.93997811h46.37306866c4.26723264,0,7.91354323-2.93094271,8.63384861-6.93997811l4.18744664-23.30625616c.91636091-5.10023025-3.20514399-9.7587016-8.63384861-9.7587016h-26.31104072Z"/>
    </g>
    <rect class="cls-1" width="437" height="388"/>
  </g>
</svg>